<?xml version="1.0" encoding="utf-8"?>
<!-- Generator: Adobe Illustrator 16.0.0, SVG Export Plug-In . SVG Version: 6.00 Build 0)  -->
<!DOCTYPE svg PUBLIC "-//W3C//DTD SVG 1.1//EN" "http://www.w3.org/Graphics/SVG/1.1/DTD/svg11.dtd">
<svg version="1.1" id="Layer_1" xmlns="http://www.w3.org/2000/svg" xmlns:xlink="http://www.w3.org/1999/xlink" x="0px" y="0px"
	 width="424.479px" height="383.98px" viewBox="0 0 424.479 383.98" enable-background="new 0 0 424.479 383.98"
	 xml:space="preserve">
<g>
	<g>
		<g>
			<path fill="#2D2B6E" d="M406.605,174.705c0,41.035-33.281,74.325-74.281,74.325c-41.082,0-74.354-33.29-74.354-74.325
				c0-41.048,33.272-74.392,74.354-74.392C373.324,100.313,406.605,133.657,406.605,174.705"/>
			<path opacity="0.1" fill="#2D2B6E" d="M276.984,283.229c0,19.477-15.789,35.265-35.259,35.265
				c-19.475,0-35.27-15.788-35.27-35.265c0-19.473,15.795-35.264,35.27-35.264C261.195,247.965,276.984,263.756,276.984,283.229"/>
			<path opacity="0.1" fill="#2D2B6E" d="M350.736,358.754c0,10.164-8.248,18.407-18.407,18.407
				c-10.169,0-18.421-8.243-18.421-18.407c0-10.169,8.252-18.421,18.421-18.421C342.488,340.333,350.736,348.585,350.736,358.754"/>
		</g>
		<g>
			<g>
				<g>
					<path fill="#FFFEF5" d="M301.552,156.182c-0.944,1.013-2.786,1.635-4.375,1.635c-4.628,0-8.358-3.522-8.358-8.381
						s3.73-8.382,8.358-8.382c3.132,0,5.872,1.658,7.322,4.283l-3.938,1.036c-0.76-0.921-2.118-1.497-3.385-1.497
						c-2.671,0-4.329,1.911-4.329,4.56c0,2.832,1.911,4.604,4.56,4.604c2.579,0,3.707-1.335,4.168-2.532v-0.023h-4.237v-3.108h7.529
						v9.118h-3.315c0-1.06,0.023-1.289,0.023-1.312H301.552z"/>
					<path fill="#FFFEF5" d="M321.841,153.879v3.615h-11.49v-16.118h3.868v12.503H321.841z"/>
					<path fill="#FFFEF5" d="M337.799,141.376l-6.171,8.98v7.138h-3.845v-7.138l-6.171-8.98h4.328l2.925,4.306
						c0.46,0.691,0.806,1.175,0.829,1.175h0.022c0.023,0,0.369-0.483,0.829-1.175l2.925-4.306H337.799z"/>
					<path fill="#FFFEF5" d="M351.273,146.374c-0.736-0.921-2.118-1.497-3.385-1.497c-2.671,0-4.329,1.911-4.329,4.56
						c0,2.786,1.819,4.513,4.329,4.513c1.543,0,3.017-0.783,3.685-1.888l3.914,1.013c-1.336,2.855-4.214,4.743-7.599,4.743
						c-4.628,0-8.358-3.522-8.358-8.381s3.73-8.382,8.358-8.382c3.178,0,5.895,1.704,7.322,4.283L351.273,146.374z"/>
					<path fill="#FFFEF5" d="M367.44,141.054c4.628,0,8.382,3.523,8.382,8.382s-3.754,8.381-8.382,8.381s-8.358-3.522-8.358-8.381
						S362.812,141.054,367.44,141.054z M367.44,153.995c2.625,0,4.352-1.865,4.352-4.559c0-2.718-1.727-4.56-4.352-4.56
						c-2.602,0-4.329,1.842-4.329,4.56C363.111,152.129,364.838,153.995,367.44,153.995z"/>
					<path fill="#FFFEF5" d="M286.734,166.5c4.605,0,8.335,3.293,8.335,8.128c0,4.836-3.729,7.99-8.335,7.99h-7.046V166.5H286.734z
						 M286.734,179.002c2.303,0,4.306-1.611,4.306-4.375c0-2.763-2.003-4.513-4.306-4.513h-3.178v8.888H286.734z"/>
					<path fill="#FFFEF5" d="M307.69,166.177c4.628,0,8.382,3.523,8.382,8.382s-3.754,8.381-8.382,8.381s-8.358-3.522-8.358-8.381
						S303.062,166.177,307.69,166.177z M307.69,179.118c2.625,0,4.352-1.865,4.352-4.559c0-2.718-1.727-4.56-4.352-4.56
						c-2.602,0-4.329,1.842-4.329,4.56C303.361,177.252,305.088,179.118,307.69,179.118z"/>
					<path fill="#FFFEF5" d="M336.89,166.5v16.118h-3.799v-3.938c0-3.822,0.138-5.71,0.115-5.71h-0.023
						c-0.022,0-1.312,2.21-1.45,2.44l-1.889,3.224h-2.003l-1.888-3.224c-0.139-0.23-1.428-2.44-1.451-2.44h-0.022
						c-0.023,0,0.114,1.888,0.114,5.71v3.938h-3.799V166.5h3.638l3.017,4.882c1.175,1.911,1.358,2.325,1.382,2.325h0.022
						c0.023,0,0.208-0.414,1.382-2.325l3.017-4.882H336.89z"/>
					<path fill="#FFFEF5" d="M352,180.084h-6.378l-0.921,2.533h-4.168l6.447-16.118h3.661l6.447,16.118h-4.168L352,180.084z
						 M350.756,176.7l-1.151-3.131c-0.346-0.921-0.76-2.372-0.783-2.372h-0.022c-0.023,0-0.438,1.451-0.783,2.372l-1.151,3.131
						H350.756z"/>
					<path fill="#FFFEF5" d="M360.729,182.618V166.5h3.868v16.118H360.729z"/>
					<path fill="#FFFEF5" d="M384.954,166.5v16.118h-3.638l-3.293-4.49c-1.474-2.026-3.638-5.088-3.661-5.088h-0.022
						c-0.023,0,0.022,2.486,0.022,6.009v3.569h-3.868V166.5h3.638l3.432,4.605c1.036,1.382,3.499,4.858,3.522,4.858h0.023
						c0.022,0-0.023-2.855-0.023-5.779V166.5H384.954z"/>
					<path fill="#FFFEF5" d="M296.14,191.623l-6.194,16.118h-4.167l-6.194-16.118h4.236l3.108,8.888
						c0.622,1.797,0.898,2.947,0.922,2.947h0.022c0.023,0,0.3-1.15,0.921-2.947l3.108-8.888H296.14z"/>
					<path fill="#FFFEF5" d="M300.011,207.741v-16.118h3.868v16.118H300.011z"/>
					<path fill="#FFFEF5" d="M321.634,204.125v3.615h-11.858v-16.118h11.72v3.615h-7.852v2.648h6.148v3.385h-6.148v2.854H321.634z"
						/>
					<path fill="#FFFEF5" d="M349.291,191.623l-4.882,16.118h-3.638l-2.395-7.438c-0.507-1.589-0.69-2.717-0.714-2.717h-0.022
						c-0.023,0-0.208,1.128-0.714,2.717l-2.396,7.438h-3.638l-4.881-16.118h4.121l1.98,7.599c0.392,1.52,0.621,2.602,0.645,2.602
						h0.023c0.022,0,0.275-1.082,0.828-2.602l2.233-6.079h3.615l2.233,6.079c0.553,1.52,0.806,2.602,0.829,2.602h0.023
						c0.022,0,0.253-1.082,0.645-2.602l1.98-7.599H349.291z"/>
					<path fill="#FFFEF5" d="M365.482,204.125v3.615h-11.858v-16.118h11.72v3.615h-7.852v2.648h6.148v3.385h-6.148v2.854H365.482z"
						/>
					<path fill="#FFFEF5" d="M380.037,207.741l-2.993-5.25h-1.98v5.25h-3.868v-16.118h6.01c4.053,0,6.493,2.211,6.493,5.526
						c0,2.164-1.036,3.776-2.901,4.651l3.569,5.94H380.037z M375.063,199.06h2.671c1.382,0,1.935-1.036,1.935-1.911
						s-0.553-1.911-1.935-1.911h-2.671V199.06z"/>
				</g>
			</g>
			<polygon stroke="#000000" stroke-miterlimit="10" points="406.605,7.161 307.289,106.108 181.605,106.108 86.605,181.108 
				176.605,126.108 317.289,126.108 			"/>
			<circle opacity="0.4" fill="#2D2B6E" cx="282.854" cy="48.411" r="13.75"/>
		</g>
	</g>
	<path d="M140.155,169.641c0.391,4.191,0.305,8.492-0.334,12.841c-4.313,29.391-31.636,49.72-61.025,45.406
		c-29.391-4.312-49.72-31.635-45.406-61.025c4.312-29.392,31.635-49.72,61.025-45.406c4.732,0.694,9.226,1.993,13.423,3.793
		l15.538-15.205c-7.809-4.445-16.548-7.56-25.974-8.942c-40.632-5.963-78.404,22.142-84.367,62.773
		c-5.963,40.633,22.143,78.404,62.773,84.367s78.404-22.142,84.367-62.773c1.213-8.265,0.995-16.403-0.43-24.188L140.155,169.641z"
		/>
</g>
<g>
</g>
<g>
</g>
<g>
</g>
<g>
</g>
<g>
</g>
<g>
</g>
</svg>
