<?xml version="1.0" encoding="utf-8"?>
<!-- Generator: Adobe Illustrator 16.0.0, SVG Export Plug-In . SVG Version: 6.00 Build 0)  -->
<!DOCTYPE svg PUBLIC "-//W3C//DTD SVG 1.1//EN" "http://www.w3.org/Graphics/SVG/1.1/DTD/svg11.dtd">
<svg version="1.1" id="Layer_1" xmlns="http://www.w3.org/2000/svg" xmlns:xlink="http://www.w3.org/1999/xlink" x="0px" y="0px"
	 width="163.096px" height="163.183px" viewBox="0 0 163.096 163.183" enable-background="new 0 0 163.096 163.183"
	 xml:space="preserve">
<g>
	<path fill="#2D2B6E" d="M159.994,80.677c0,43.795-35.519,79.323-79.275,79.323c-43.845,0-79.354-35.528-79.354-79.323
		c0-43.808,35.51-79.394,79.354-79.394C124.476,1.283,159.994,36.869,159.994,80.677"/>
	<g>
		<g>
			<g>
				<path fill="#FFFFFF" d="M81.588,0C36.602,0,0,36.62,0,81.63c0,44.968,36.602,81.553,81.588,81.553
					c44.944,0,81.508-36.585,81.508-81.553C163.096,36.62,126.532,0,81.588,0z M81.585,161.802
					c-44.276,0-80.181-35.896-80.181-80.181c0-44.286,35.904-80.187,80.181-80.187c44.281,0,80.177,35.9,80.177,80.187
					C161.762,125.906,125.866,161.802,81.585,161.802z"/>
			</g>
		</g>
		<g>
			<path fill="#FFFFFF" d="M116.229,119.208c0.155,0.042,0.374,0.276,0.394,0.416c-0.079,0.075-0.164,0.177-0.227,0.243
				c-0.362,0.463-0.391,0.621,0.376,1.495c0.502,0.575,1.414,1.604,1.786,2.006c0.383,0.425,0.775,1.005,1.351,0.579
				c0.103-0.079,0.168-0.131,0.245-0.2c0.166,0,0.407,0.266,0.389,0.406c-0.895,0.805-1.836,1.622-2.522,2.169
				c-0.176,0.009-0.384-0.276-0.359-0.444c0.1-0.094,0.162-0.14,0.207-0.201c0.479-0.504,0.147-0.948-0.294-1.472
				c-0.652-0.772-1.385-1.632-1.751-2.062c-0.612-0.752-0.849-0.906-1.363-0.621c-0.083,0.047-0.175,0.122-0.294,0.215
				c-0.133-0.009-0.357-0.295-0.348-0.458C114.785,120.502,115.56,119.824,116.229,119.208 M86.844,132.483
				c-0.895,0.098-1.923,0.188-3.168,0.243c-0.11,0.131-0.087,0.486,0.016,0.584c0.149,0,0.252-0.009,0.35,0
				c0.589,0.074,0.674,0.332,0.748,1.305c0.028,0.561,0.117,1.687,0.188,2.688c0.047,0.687,0.052,1.252-0.638,1.369
				c-0.068,0.019-0.151,0.023-0.298,0.033c-0.112,0.121-0.106,0.477,0.038,0.57c0.881-0.037,2.123-0.126,3.328-0.248
				c0.094-0.116,0.049-0.467-0.084-0.561c-0.112,0-0.188,0.018-0.317,0.018c-0.706,0-0.701-0.701-0.746-1.267
				c-0.058-0.546-0.183-1.916-0.255-2.669c-0.103-1.164,0.015-1.271,0.584-1.43c0.089-0.028,0.211-0.047,0.332-0.07
				C86.992,132.928,86.947,132.609,86.844,132.483 M36.344,106.525c-0.446-0.794-0.942-1.691-1.486-2.823
				c-0.159-0.041-0.47,0.117-0.519,0.257c0.059,0.132,0.102,0.225,0.138,0.327c0.166,0.566-0.036,0.744-0.909,1.188
				c-0.495,0.262-1.505,0.781-2.394,1.239c-0.613,0.318-1.127,0.552-1.51-0.032c-0.042-0.052-0.085-0.132-0.152-0.253
				c-0.151-0.062-0.479,0.098-0.504,0.253c0.383,0.784,0.965,1.897,1.553,2.935c0.134,0.053,0.44-0.117,0.468-0.274
				c-0.036-0.108-0.074-0.174-0.13-0.281c-0.287-0.664,0.363-0.926,0.864-1.191c0.481-0.28,1.688-0.94,2.354-1.3
				c1.03-0.553,1.168-0.486,1.539-0.028c0.063,0.07,0.134,0.177,0.192,0.271C35.991,106.83,36.27,106.666,36.344,106.525
				 M30.208,73.623c0.134-0.902,0.295-1.912,0.555-3.142c-0.099-0.136-0.438-0.196-0.559-0.122
				c-0.045,0.146-0.068,0.253-0.103,0.351c-0.223,0.538-0.494,0.565-1.438,0.383c-0.552-0.106-1.678-0.308-2.657-0.49
				c-0.675-0.13-1.227-0.271-1.169-0.963c0-0.061,0.022-0.149,0.036-0.289c-0.09-0.132-0.433-0.221-0.55-0.108
				c-0.189,0.865-0.402,2.08-0.589,3.276c0.089,0.127,0.433,0.17,0.554,0.058c0.026-0.099,0.037-0.174,0.07-0.3
				c0.174-0.692,0.849-0.505,1.407-0.412c0.547,0.085,1.907,0.304,2.648,0.431c1.152,0.188,1.22,0.336,1.235,0.916
				c0,0.103-0.011,0.225-0.016,0.342C29.736,73.65,30.062,73.688,30.208,73.623 M132.983,81.021c0.01,0.916-0.01,1.94-0.081,3.193
				c0.111,0.107,0.47,0.126,0.572,0.032c0.019-0.145,0.029-0.247,0.049-0.351c0.129-0.569,0.396-0.631,1.357-0.598
				c0.575,0.028,1.706,0.064,2.702,0.099c0.697,0.023,1.263,0.083,1.305,0.775c0,0.062,0,0.149,0.009,0.295
				c0.098,0.121,0.453,0.153,0.561,0.032c0.059-0.884,0.09-2.122,0.09-3.333c-0.09-0.103-0.434-0.103-0.553,0.023
				c-0.009,0.107-0.009,0.187-0.019,0.308c-0.07,0.716-0.755,0.613-1.332,0.604c-0.557,0-1.933-0.014-2.683-0.027
				c-1.179-0.015-1.272-0.149-1.37-0.721c-0.01-0.098-0.019-0.224-0.023-0.341C133.44,80.938,133.121,80.938,132.983,81.021
				 M121.807,113.636c0,0-0.799,0.21-1.729,1.257c-0.949,1.062-0.967,2.389-0.105,3.146c0.973,0.855,1.968,0.379,2.854-0.01
				c0.973-0.421,1.442-0.607,1.865-0.28c0.28,0.233,0.706,0.86-0.054,1.636c-0.844,0.86-1.678,0.225-1.804,0.168
				c-0.231,0.085-0.357,0.259-0.335,0.463c0.278,0.276,1.094,0.852,1.272,0.912c0.271-0.215,0.747-0.523,1.453-1.299
				c1.473-1.613,0.472-2.805-0.196-3.188c-0.528-0.3-1.112-0.369-2.496,0.271c-0.956,0.448-1.578,0.579-2.038,0.074
				c-0.318-0.346-0.451-0.897,0.099-1.523c0.864-0.986,1.706-0.453,2.29-0.191c0.201-0.104,0.355-0.365,0.362-0.542
				C122.924,114.267,122.508,113.931,121.807,113.636 M79.864,133.03c0,0-0.661-0.5-2.069-0.594
				c-1.398-0.104-2.457,0.701-2.524,1.87c-0.08,1.29,0.911,1.771,1.765,2.233c0.933,0.506,1.365,0.767,1.365,1.296
				c0,0.368-0.236,1.084-1.32,0.958c-1.184-0.136-1.207-1.174-1.247-1.309c-0.2-0.146-0.406-0.127-0.579,0.023
				c-0.033,0.387,0.019,1.383,0.089,1.556c0.322,0.085,0.873,0.257,1.914,0.346c2.171,0.169,2.496-1.351,2.386-2.112
				c-0.081-0.599-0.396-1.108-1.757-1.805c-0.949-0.481-1.419-0.883-1.309-1.561c0.079-0.463,0.429-0.902,1.257-0.846
				c1.31,0.051,1.407,1.061,1.571,1.673c0.205,0.094,0.509,0.061,0.635-0.032C80.057,134.307,80.062,133.764,79.864,133.03
				 M29.453,81.485c0,0,0.473-0.678,0.515-2.08c0.049-1.398-0.79-2.45-1.942-2.478c-1.298-0.028-1.75,0.972-2.192,1.846
				c-0.465,0.939-0.71,1.384-1.25,1.402c-0.358,0.014-1.079-0.195-0.996-1.276c0.094-1.201,1.135-1.243,1.281-1.29
				c0.121-0.219,0.103-0.425-0.045-0.584c-0.391-0.028-1.387,0.065-1.559,0.141c-0.079,0.318-0.24,0.873-0.28,1.916
				c-0.103,2.178,1.435,2.449,2.192,2.323c0.589-0.107,1.085-0.43,1.736-1.809c0.456-0.972,0.849-1.454,1.519-1.37
				c0.47,0.057,0.914,0.398,0.893,1.234c-0.016,1.309-1.014,1.436-1.621,1.627c-0.089,0.191-0.04,0.5,0.059,0.635
				C28.188,81.723,28.708,81.704,29.453,81.485 M31.459,66.682c0,0,0.643-0.538,1.055-1.876c0.412-1.35-0.124-2.565-1.237-2.893
				c-1.238-0.374-1.938,0.477-2.585,1.21c-0.701,0.786-1.059,1.16-1.57,1.024c-0.351-0.084-1.003-0.477-0.636-1.505
				c0.406-1.122,1.419-0.907,1.565-0.902c0.188-0.182,0.215-0.379,0.113-0.57c-0.38-0.126-1.35-0.309-1.541-0.28
				c-0.152,0.299-0.461,0.795-0.782,1.791c-0.654,2.074,0.762,2.733,1.519,2.799c0.599,0.062,1.166-0.13,2.158-1.295
				c0.69-0.805,1.191-1.177,1.824-0.906c0.435,0.172,0.771,0.611,0.547,1.425c-0.371,1.244-1.362,1.118-2.01,1.127
				c-0.136,0.178-0.166,0.486-0.112,0.641C30.188,66.573,30.709,66.705,31.459,66.682 M131.431,64.376
				c1.729-1.359,1.878-1.584,3.27-2.636c0.503-0.369,0.699-0.523,0.931-0.056c0.059,0.112,0.087,0.187,0.115,0.252
				c0.18,0.075,0.463-0.051,0.514-0.201c-0.374-0.99-0.691-1.897-1.141-2.945c-0.203-0.093-0.483,0.066-0.512,0.211
				c0.037,0.098,0.077,0.201,0.107,0.346c0.105,0.523-0.03,0.725-0.633,1.225c-0.339,0.29-4.135,3.342-4.212,3.427
				c-0.098,0.07-0.07,0.177-0.025,0.224c0.039,0.062,0.441,0.584,0.642,0.81c1.692,0.056,4.229,0.284,5.225,0.369
				c1,0.079,1.199,0.262,1.288,0.537c0.036,0.141,0.06,0.238,0.088,0.347c0.165,0.083,0.478,0.032,0.526-0.136
				c-0.181-0.729-0.502-1.81-0.723-2.501c-0.166-0.112-0.467-0.019-0.522,0.136c0.018,0.098,0.056,0.191,0.067,0.266
				c0.061,0.37,0.056,0.58-0.769,0.557C134.362,64.568,132.764,64.451,131.431,64.376 M133.193,91.096
				c2.183-0.323,2.422-0.449,4.144-0.691c0.62-0.075,0.872-0.104,0.844,0.402c-0.019,0.134-0.019,0.214-0.027,0.284
				c0.116,0.159,0.425,0.183,0.55,0.079c0.17-1.052,0.319-1.995,0.446-3.122c-0.13-0.183-0.461-0.183-0.55-0.08
				c-0.021,0.112-0.035,0.229-0.075,0.361c-0.165,0.499-0.376,0.611-1.157,0.761c-0.448,0.085-5.242,0.898-5.359,0.916
				c-0.114,0.024-0.132,0.127-0.123,0.192c0.004,0.061,0.103,0.729,0.164,1.019c1.455,0.889,3.55,2.313,4.387,2.881
				c0.825,0.555,0.918,0.812,0.844,1.093c-0.033,0.15-0.057,0.243-0.082,0.337c0.099,0.164,0.395,0.271,0.516,0.153
				c0.202-0.757,0.449-1.823,0.605-2.533c-0.093-0.178-0.406-0.248-0.535-0.149c-0.018,0.099-0.036,0.196-0.07,0.271
				c-0.121,0.346-0.233,0.533-0.943,0.112C135.667,92.708,134.317,91.824,133.193,91.096 M131.252,109.868
				c-0.162,0.354-0.349,0.696-0.536,0.968c-0.145,0.205-0.448,0.538-0.813,0.631c-0.374,0.089-0.773-0.061-0.988-0.187
				c-0.208-0.127-0.441-0.267-0.654-0.673c-0.215-0.402-0.055-0.87,0.123-1.188l-0.161-0.3c-0.561,0.089-3.325,0.439-3.816,0.514
				c-0.439,0.669-0.965,1.422-1.058,1.538c0.058,0.16,0.289,0.318,0.469,0.347c0.084-0.112,0.164-0.215,0.191-0.248
				c0.33-0.355,0.51-0.435,1.256-0.574c0.78-0.146,1.539-0.248,2.223-0.3c-0.183,0.757-0.154,1.538,0.692,2.104
				c1.229,0.804,2.138,0.009,2.612-0.646c0.172-0.229,0.353-0.569,0.52-0.827c0.149-0.267,0.668-1.183,1.564-2.828
				c-0.018-0.116-0.34-0.313-0.499-0.243c-0.052,0.094-0.079,0.127-0.153,0.239c-0.423,0.668-0.495,0.462-1.46-0.07
				c-0.438-0.229-1.729-0.949-2.384-1.295c-0.973-0.543-1.08-0.706-0.889-1.234c0.026-0.075,0.075-0.168,0.113-0.275
				c-0.06-0.131-0.333-0.253-0.496-0.248c-0.411,0.799-0.975,1.804-1.51,2.692c0.057,0.145,0.344,0.304,0.481,0.28
				c0.073-0.098,0.131-0.183,0.2-0.271c0.375-0.444,0.627-0.407,1.485,0.094C128.222,108.134,130.127,109.232,131.252,109.868
				 M102.293,128.347c0.255-0.108,1.381-0.627,2.112-0.996c0.167,0.023,0.33,0.313,0.261,0.481c-0.033,0.032-0.15,0.084-0.261,0.173
				c-0.245,0.196-0.421,0.351-0.403,1.426c0.021,1.014,0.051,4.927,0.061,5.277c-0.112,0.131-0.604,0.594-0.641,0.627
				c-0.052,0.032-0.092,0.064-0.173-0.019c-0.079-0.085-3.394-3.721-3.703-4.044c-0.217-0.225-0.742-0.875-1.271-0.734
				c-0.136,0.053-0.183,0.065-0.345,0.104c-0.102-0.07-0.263-0.347-0.155-0.547c1.265-0.42,2.255-0.8,2.65-0.973
				c0.148,0.047,0.289,0.332,0.21,0.51c-0.062,0.032-0.096,0.043-0.217,0.094c-0.482,0.229-0.201,0.51,0.121,0.878
				c0.34,0.365,0.334,0.374,0.512,0.553c0.278-0.117,1.912-0.805,2.231-0.927c0-0.145-0.016-0.294-0.025-0.705
				c-0.009-0.701-0.067-0.884-0.551-0.733c-0.15,0.032-0.145,0.042-0.233,0.06C102.375,128.8,102.174,128.562,102.293,128.347
				 M103.361,133.703l-0.063-2.894l-1.876,0.763L103.361,133.703 M54.874,125.495c0.354,0.224,1.303,0.771,2.027,1.149
				c0.085,0.159-0.062,0.449-0.244,0.5c-0.05-0.014-0.147-0.079-0.283-0.103c-0.305-0.093-0.53-0.154-1.397,0.491
				c-0.828,0.593-4.005,2.879-4.273,3.094c-0.177-0.023-0.829-0.158-0.893-0.183c-0.054-0.004-0.098-0.027-0.084-0.14
				c0.03-0.111,1.08-4.922,1.174-5.361c0.054-0.3,0.277-1.107-0.146-1.454c-0.11-0.089-0.149-0.121-0.271-0.225
				c0-0.121,0.126-0.41,0.357-0.439c1.068,0.781,1.887,1.323,2.32,1.6c0.038,0.154-0.106,0.435-0.304,0.467
				c-0.056-0.032-0.075-0.051-0.193-0.121c-0.456-0.263-0.533,0.13-0.652,0.607c-0.103,0.481-0.112,0.481-0.157,0.725
				c0.265,0.168,1.761,1.112,2.041,1.286c0.126-0.07,0.234-0.174,0.568-0.426c0.561-0.411,0.684-0.561,0.282-0.879
				c-0.117-0.094-0.112-0.085-0.189-0.136C54.547,125.836,54.63,125.536,54.874,125.495 M51.105,129.454l2.335-1.726l-1.718-1.084
				L51.105,129.454 M113.696,127.253c0.079,0.2,0.161,0.443,0.149,0.738c-0.009,0.257-0.094,0.621-0.607,0.995
				c-0.121,0.094-0.411,0.262-0.731,0.473c0,0-1.715-2.665-2.108-3.281c-0.593-0.944-0.619-1.141-0.187-1.511
				c0.044-0.051,0.128-0.116,0.226-0.173c0-0.145-0.187-0.407-0.336-0.472c-0.78,0.523-1.762,1.159-2.655,1.673
				c-0.022,0.164,0.138,0.454,0.27,0.501c0.11-0.052,0.223-0.112,0.311-0.146c0.554-0.215,0.745-0.014,1.265,0.813
				c0.285,0.454,0.273,0.416,2.05,3.324c-0.411,0.252-0.829,0.504-1.019,0.594c-0.531,0.284-0.902-0.058-1.031-0.155
				c-0.133-0.103-0.256-0.247-0.362-0.406c-0.201-0.027-0.468,0.191-0.491,0.312c0.147,0.234,0.854,1.281,1.024,1.576
				c2.178-1.234,3.482-2.039,5.407-3.395c-0.022-0.103-0.561-1.509-0.62-1.668C114.047,126.963,113.785,127.112,113.696,127.253
				 M96.908,135.297c0.016,0.191,0.016,0.477-0.093,0.733c-0.101,0.239-0.293,0.557-0.915,0.744
				c-0.135,0.046-0.458,0.116-0.832,0.205c0,0-0.743-3.08-0.913-3.805c-0.255-1.069-0.213-1.248,0.311-1.473
				c0.057-0.018,0.161-0.06,0.282-0.094c0.036-0.125-0.058-0.43-0.17-0.542c-0.897,0.238-2.07,0.506-3.058,0.706
				c-0.088,0.146-0.019,0.468,0.085,0.557c0.128-0.023,0.25-0.028,0.344-0.037c0.591-0.019,0.701,0.229,0.933,1.178
				c0.12,0.523,0.12,0.495,0.856,3.818c-0.479,0.108-0.96,0.201-1.166,0.238c-0.599,0.085-0.844-0.359-0.926-0.5
				c-0.084-0.136-0.162-0.308-0.214-0.505c-0.185-0.084-0.496,0.033-0.552,0.15c0.056,0.252,0.381,1.485,0.441,1.818
				c2.475-0.468,3.966-0.79,6.229-1.444c0.006-0.108-0.039-1.604-0.039-1.776C97.35,135.129,97.044,135.185,96.908,135.297
				 M131.824,70.131c0.114,0.514,0.398,1.968,0.485,2.58c0.174,0.126,0.414,0.079,0.553-0.065c-0.015-0.084-0.015-0.145-0.036-0.327
				c-0.034-0.481,0.188-0.658,1.216-0.893c0.683-0.15,2.825-0.537,3.295-0.622c-0.459,0.519-1.072,1.192-2.01,2.276
				c-0.983,1.122-2.013,2.417-2.755,3.412c0.009,0.164,0.143,0.322,0.25,0.365c0.324-0.085,3.875-0.28,4.663-0.347
				c1.107-0.098,1.275-0.027,1.36,0.464c0.018,0.083,0.018,0.195,0.027,0.28c0.13,0.103,0.463,0.13,0.557-0.038
				c-0.04-0.678-0.134-1.753-0.241-2.674c-0.147-0.121-0.409-0.078-0.549,0.047c0.009,0.126,0.009,0.248,0.019,0.336
				c0.018,0.679-0.299,0.768-1.244,0.88c-0.495,0.042-2.332,0.154-2.837,0.195c0.206-0.271,0.775-1.075,1.776-2.225
				c0.935-1.075,1.612-1.776,1.882-2.075c0.259-0.294,0.378-0.397,0.53-0.473c-0.052-0.112-0.084-0.21-0.107-0.299
				c-0.08-0.527-0.285-1.622-0.389-1.981c-0.154-0.084-0.43-0.015-0.514,0.122c0.01,0.148,0.027,0.219,0.042,0.331
				c0.062,0.622-0.474,0.663-1.198,0.799c-0.732,0.132-1.787,0.332-2.684,0.506c-0.992,0.183-1.335,0.079-1.473-0.389
				c-0.031-0.083-0.078-0.253-0.087-0.322C132.179,69.873,131.92,69.935,131.824,70.131 M63.505,129.617
				c-0.144,0.085-0.267,0.394-0.206,0.529c0.115,0.047,0.22,0.098,0.307,0.153c0.507,0.291,0.467,0.562,0.168,1.479
				c-0.075,0.251-0.196,0.625-0.351,1.069c0,0-0.909-0.317-1.655-0.603c-0.74-0.275-1.624-0.66-1.624-0.66
				c0.168-0.387,0.33-0.752,0.451-1.032c0.446-1.028,0.575-1.141,1.139-1.001c0.074,0.015,0.168,0.047,0.28,0.089
				c0.114-0.089,0.219-0.383,0.179-0.533c-0.954-0.373-2.081-0.859-2.794-1.191c-0.159,0.065-0.313,0.351-0.255,0.514
				c0.103,0.058,0.21,0.123,0.295,0.183c0.427,0.304,0.427,0.553,0.034,1.449c-0.229,0.491-0.743,1.581-1.129,2.486
				c-0.255,0.59-0.539,1.128-1.18,0.926c-0.061-0.019-0.164-0.056-0.295-0.102c-0.178,0.093-0.286,0.374-0.212,0.51
				c0.651,0.321,1.876,0.85,3.007,1.303c0.112-0.065,0.28-0.364,0.201-0.522c-0.093-0.047-0.116-0.052-0.21-0.104
				c-0.552-0.299-0.454-0.771-0.138-1.496c0.077-0.173,0.223-0.527,0.376-0.91c0,0,0.996,0.42,1.683,0.687
				c0.688,0.252,1.639,0.589,1.639,0.589c-0.099,0.318-0.211,0.641-0.305,0.939c-0.195,0.622-0.472,1.145-1.128,1
				c-0.06-0.004-0.126-0.023-0.264-0.065c-0.161,0.112-0.251,0.407-0.157,0.519c0.738,0.28,1.97,0.711,3.081,1.034
				c0.103-0.07,0.238-0.397,0.148-0.538c-0.098-0.028-0.121-0.047-0.219-0.084c-0.585-0.243-0.486-0.711-0.246-1.463
				c0.143-0.459,0.613-1.889,0.835-2.604c0.322-1.047,0.5-1.146,1.052-1.066c0.07,0.015,0.183,0.029,0.289,0.058
				c0.108-0.09,0.194-0.402,0.15-0.553C65.538,130.333,64.419,129.955,63.505,129.617 M130.6,96.658
				c-0.505,1.715-1.25,3.655-1.855,4.987c0.262,0.225,1.438,0.935,1.604,1.047c0.255-0.069,0.365-0.346,0.349-0.537
				c-0.063-0.061-0.149-0.131-0.309-0.285c-0.47-0.458-0.604-0.81-0.407-1.394c0.05-0.149,0.118-0.363,0.221-0.621
				c0.284-0.705,0.369-0.926,1.337-0.552c0.136,0.057,1.243,0.468,1.243,0.468c-0.005,0.004-0.675,1.757-0.675,1.757
				c0.141,0.15,0.372,0.244,0.607,0.253c0.009-0.014,0.16-0.369,0.687-1.795c0.202,0.061,1.62,0.556,1.802,0.622
				c0.164,0.065,0.262,0.14,0.173,0.43c-0.083,0.29-0.364,1.052-0.607,1.542c-0.275,0.543-0.668,0.584-0.923,0.59
				c-0.225,0.014-0.47-0.015-0.619-0.042c-0.18,0.145-0.233,0.401-0.169,0.621c0.403,0.136,1.269,0.407,1.711,0.537
				c0.862-1.98,1.612-4.099,2.046-5.468c-0.09-0.136-0.363-0.233-0.526-0.178c-0.023,0.056-0.043,0.121-0.094,0.233
				c-0.269,0.65-0.715,0.468-1.465,0.215c-0.647-0.22-1.692-0.575-2.556-0.86c-1.166-0.374-1.205-0.645-1.093-1.187
				c0.018-0.099,0.022-0.118,0.054-0.225C131.001,96.686,130.735,96.611,130.6,96.658 M33.534,100.768
				c-0.691-1.646-1.349-3.6-1.767-5.04c-0.337-0.004-1.697,0.206-1.897,0.229c-0.157,0.219-0.054,0.51,0.083,0.64
				c0.078,0,0.192,0,0.407,0.015c0.655,0.062,0.991,0.238,1.21,0.81c0.071,0.145,0.144,0.369,0.229,0.621
				c0.238,0.734,0.302,0.953-0.683,1.28c-0.136,0.043-1.243,0.444-1.243,0.444c-0.004-0.023-0.607-1.785-0.607-1.785
				c-0.21-0.033-0.446,0.056-0.616,0.191c0,0.014,0.098,0.383,0.607,1.827c-0.192,0.075-1.595,0.604-1.782,0.654
				c-0.177,0.062-0.294,0.066-0.41-0.205c-0.117-0.285-0.397-1.052-0.515-1.58c-0.138-0.575,0.131-0.874,0.323-1.042
				c0.177-0.164,0.371-0.29,0.499-0.364c0.05-0.221-0.067-0.459-0.261-0.58c-0.405,0.141-1.239,0.495-1.646,0.668
				c0.603,2.137,1.416,4.311,1.906,5.521c0.157,0.028,0.438-0.061,0.531-0.191c-0.031-0.07-0.04-0.126-0.094-0.247
				c-0.205-0.66,0.26-0.818,1-1.104c0.647-0.238,1.662-0.64,2.511-0.967c1.133-0.448,1.343-0.285,1.604,0.215
				c0.038,0.084,0.055,0.098,0.108,0.196C33.215,100.996,33.459,100.874,33.534,100.768 M42.649,115.346
				c-0.353-0.387-1.304-1.5-1.69-1.991c-0.217-0.027-0.387,0.122-0.441,0.309c0.059,0.094,0.1,0.136,0.19,0.291
				c0.256,0.401,0.167,0.658-0.605,1.359c-0.526,0.472-2.209,1.855-2.566,2.165c0.146-0.674,0.343-1.566,0.638-2.982
				c0.287-1.458,0.559-3.081,0.725-4.31c-0.098-0.145-0.287-0.221-0.414-0.206c-0.229,0.242-3.243,2.142-3.889,2.59
				c-0.922,0.621-1.092,0.645-1.409,0.266c-0.055-0.069-0.114-0.163-0.171-0.229c-0.158-0.033-0.458,0.116-0.458,0.304
				c0.351,0.565,0.977,1.478,1.526,2.226c0.18,0.022,0.376-0.136,0.432-0.31c-0.056-0.093-0.124-0.219-0.168-0.298
				c-0.351-0.58-0.117-0.81,0.657-1.37c0.396-0.28,1.96-1.295,2.387-1.562c-0.053,0.337-0.15,1.313-0.45,2.796
				c-0.304,1.411-0.539,2.365-0.627,2.767c-0.083,0.379-0.127,0.505-0.226,0.659c0.099,0.065,0.161,0.127,0.226,0.206
				c0.333,0.42,1.016,1.243,1.281,1.533c0.189-0.006,0.377-0.192,0.405-0.369c-0.089-0.108-0.143-0.173-0.201-0.253
				c-0.361-0.519,0.094-0.818,0.647-1.29c0.57-0.478,1.407-1.173,2.104-1.758c0.768-0.646,1.124-0.729,1.478-0.396
				c0.062,0.065,0.187,0.187,0.233,0.242C42.472,115.749,42.663,115.575,42.649,115.346 M30.886,92.264
				c-0.119-0.522-0.403-1.963-0.502-2.579c-0.176-0.122-0.407-0.07-0.543,0.069c0.015,0.09,0.024,0.158,0.029,0.332
				c0.027,0.477-0.174,0.659-1.192,0.897c-0.688,0.154-2.837,0.556-3.295,0.641c0.45-0.524,1.07-1.191,1.99-2.295
				c0.982-1.122,2.006-2.422,2.763-3.408c-0.027-0.178-0.154-0.331-0.271-0.378c-0.313,0.088-3.88,0.294-4.658,0.374
				c-1.115,0.094-1.271,0.022-1.363-0.468c-0.017-0.084-0.021-0.192-0.042-0.275c-0.121-0.108-0.455-0.117-0.554,0.027
				c0.035,0.687,0.138,1.776,0.256,2.692c0.145,0.112,0.4,0.074,0.534-0.056c0-0.104-0.005-0.248-0.009-0.337
				c-0.023-0.688,0.296-0.762,1.23-0.874c0.501-0.062,2.359-0.164,2.861-0.21c-0.212,0.261-0.771,1.079-1.762,2.216
				c-0.939,1.093-1.616,1.809-1.895,2.127c-0.249,0.284-0.352,0.374-0.504,0.448c0.045,0.117,0.077,0.2,0.089,0.294
				c0.086,0.538,0.275,1.585,0.383,1.973c0.164,0.084,0.412,0,0.529-0.121c-0.031-0.145-0.045-0.233-0.049-0.322
				c-0.068-0.642,0.47-0.678,1.184-0.81c0.734-0.145,1.808-0.346,2.696-0.514c0.983-0.191,1.334-0.084,1.475,0.364
				c0.034,0.099,0.083,0.271,0.093,0.317C30.533,92.517,30.795,92.47,30.886,92.264 M45.729,119.302
				c0.076,0.079,0.152,0.148,0.225,0.238c0.36,0.43,0.525,0.72-0.074,1.426c-0.136,0.154-0.654,0.696-0.805,0.884
				c-0.565-0.506-0.811-0.744-1.341-1.234c-0.197,0.074-0.402,0.28-0.495,0.49c0.516,0.486,0.775,0.725,1.368,1.276
				c-0.138,0.169-1.227,1.411-1.364,1.548c-0.127,0.13-0.229,0.182-0.456,0.004c-0.236-0.201-0.567-0.477-1.01-0.949
				c-0.699-0.762,0.049-1.836,0.255-2.145c-0.07-0.244-0.259-0.374-0.519-0.384c-0.383,0.463-1.062,1.379-1.404,1.776
				c1.747,1.771,2.854,2.729,4.223,3.837c0.15-0.041,0.344-0.257,0.358-0.415c-0.049-0.053-0.083-0.094-0.176-0.178
				c-0.5-0.491-0.151-0.851,0.351-1.445c0.346-0.387,1.085-1.211,1.778-2.057c0.783-0.939,0.989-0.884,1.466-0.561
				c0.067,0.042,0.076,0.051,0.17,0.121c0.168-0.079,0.335-0.299,0.349-0.43c-0.871-0.701-1.758-1.481-2.52-2.197
				C45.94,118.937,45.768,119.166,45.729,119.302 M19.268,65.816c0.627-2.702,1.623-5.783,2.562-8.125
				c-0.426-0.327-2.363-1.368-2.637-1.527c-0.402,0.13-0.555,0.574-0.515,0.883c0.112,0.08,0.246,0.192,0.524,0.431
				c0.771,0.687,0.986,1.22,0.728,2.173c-0.064,0.238-0.167,0.589-0.307,0.995c-0.401,1.164-0.524,1.506-2.086,0.981
				c-0.229-0.068-1.977-0.607-1.977-0.607c0.007-0.022,0.925-2.864,0.925-2.864c-0.247-0.238-0.614-0.361-0.976-0.351
				c-0.015,0.036-0.229,0.593-0.962,2.926c-0.33-0.098-2.625-0.762-2.914-0.86c-0.275-0.121-0.439-0.215-0.313-0.683
				c0.122-0.458,0.49-1.701,0.848-2.505c0.382-0.856,1.001-0.978,1.413-1.005c0.373-0.033,0.756-0.015,1.002,0.023
				c0.255-0.244,0.332-0.659,0.206-1.015c-0.649-0.183-2.031-0.538-2.736-0.706c-1.296,3.324-2.331,6.765-2.836,8.862
				c0.146,0.187,0.594,0.342,0.83,0.253c0.037-0.103,0.067-0.201,0.134-0.394c0.366-1.05,1.105-0.799,2.318-0.448
				c1.044,0.304,2.729,0.781,4.135,1.169c1.881,0.505,1.985,0.926,1.838,1.818c-0.023,0.141-0.023,0.173-0.06,0.342
				C18.635,65.778,19.065,65.887,19.268,65.816 M49.757,25.882c1.482-0.878,2.845-2.173,3.129-2.472
				c-0.429-0.855-0.814-1.974-1.245-2.852c-0.231-0.061-0.829,0.158-0.893,0.368c0.103,0.394,0.376,1.175,0.269,1.819
				c-0.151,0.902-0.855,1.631-1.692,2.131c-0.777,0.459-3.356,1.543-5.465-1.574c-2.194-3.249-0.277-5.512,0.896-6.194
				c1.063-0.622,2.095-0.607,2.707-0.401c0.624,0.219,1.021,0.733,1.312,1.005c0.223,0.047,0.669-0.36,0.718-0.584
				c-0.564-0.801-1.191-1.562-1.677-2.356c-0.403,0.117-2.352,0.767-3.806,1.649c-1.674,1.02-3.165,2.675-3.178,5.039
				c-0.015,1.875,1.13,3.95,3.141,4.951C46.235,27.537,48.275,26.766,49.757,25.882 M58.512,10.293
				c1.686-0.519,2.604-0.804,4.294-1.233c1.767-0.454,3.968-0.945,6.103-1.296c0.325,0.753,0.874,1.964,1.068,2.595
				c-0.019,0.136-0.374,0.599-0.94,0.327c-0.181-0.359-0.368-0.678-0.549-0.888c-0.259-0.3-0.689-0.795-1.914-0.552
				c-0.935,0.188-1.701,0.369-1.936,0.43c-0.233,0.061-0.453,0.099-0.342,0.394c0.21,0.546,0.996,2.57,1.16,3.015
				c0.607-0.141,2.33-0.548,2.849-0.654c0.265,0.322,0.363,0.775,0.325,1.075c-0.43,0.083-2.337,0.522-2.815,0.625
				c0.1,0.306,0.567,1.553,0.824,2.212c0.354,0.916,0.632,1.341,1.543,1.183c0.767-0.122,0.92-0.163,1.317-0.267
				c0.744-0.183,1.303-0.626,1.464-1.828c0.016-0.145,0.016-0.359,0.028-0.705c0.14-0.276,0.722-0.383,0.996-0.062
				c0.064,0.431,0.185,1.744,0.226,3.17c-3.349,0.519-5.511,0.996-8.271,1.767c-0.289-0.094-0.477-0.598-0.253-0.859
				c0.241-0.076,0.586-0.191,0.679-0.233c0.245-0.123,0.691-0.444,0.451-1.226c-0.161-0.533-0.701-1.894-0.701-1.894
				c-0.344,0.094-3.011,0.852-3.43,0.986c-0.069,0.463-0.235,1.907-0.282,2.39c-0.044,0.48,0.181,0.813,0.475,0.795
				c0.245-0.02,0.322-0.053,0.554-0.104c0.325,0.131,0.407,0.637,0.188,0.846c-1.369,0.431-2.801,0.964-3.574,1.262
				c-0.291-0.051-0.512-0.551-0.346-0.863c0.187-0.08,0.393-0.174,0.521-0.248c0.206-0.132,0.625-0.276,0.825-1.281
				c0.191-1.014,0.866-6.727,0.893-6.923c0.096-0.654,0.004-0.875-0.188-1.062c-0.183-0.177-0.584-0.126-0.973-0.028
				C58.526,10.98,58.421,10.573,58.512,10.293 M61.89,10.409c-0.284,0.043-0.431,0.221-0.47,0.44
				c-0.044,0.308-0.393,3.384-0.54,4.412c0.378-0.098,2.22-0.631,2.874-0.813c-0.177-0.514-1.173-3.234-1.348-3.706
				C62.317,10.494,62.1,10.391,61.89,10.409 M35.764,36.283c1.029-1.019,2.251-2.197,3.759-3.511c0-0.266-0.384-0.678-0.61-0.706
				c-0.18,0.159-0.317,0.276-0.456,0.36c-0.782,0.49-1.153,0.252-2.206-0.889c-0.599-0.654-1.824-2-2.894-3.169
				c-0.752-0.823-1.309-1.519-0.579-2.355c0.065-0.075,0.168-0.173,0.32-0.342c0.034-0.252-0.33-0.683-0.597-0.668
				c-1.057,0.931-2.595,2.351-3.954,3.697c-0.015,0.224,0.376,0.627,0.646,0.604c0.132-0.104,0.217-0.192,0.374-0.323
				c0.893-0.72,1.563,0.173,2.196,0.823c0.619,0.631,2.143,2.211,2.974,3.08c1.304,1.346,1.255,1.594,0.714,2.342
				c-0.094,0.136-0.224,0.285-0.352,0.43C35.147,35.872,35.516,36.236,35.764,36.283 M17.113,45.285
				c-0.294,0.104-0.8-0.172-0.688-0.519c1.11-1.948,1.815-3.065,2.464-4.081c1.344-2.079,4.33-5.777,8.46-2.663
				c3.202,2.416,2.117,5.759,0.672,7.83l-1.447,2.261L25.4,50.147c-0.322,0.121-0.706,0.046-0.795-0.383l0.178-0.44
				c0.347-0.854,0.354-0.926-0.956-1.71l-4.203-2.524c-1.383-0.837-1.729-0.687-2.113-0.312
				C17.305,44.964,17.207,45.173,17.113,45.285 M19.395,41.85c-0.174,0.463-0.094,0.548,0.116,0.692
				c0.122,0.079,5.086,3.188,5.086,3.188c0.673,0.407,1.178,0.637,1.623,0.533c0.374-0.094,0.611-0.369,0.981-0.978
				c0.472-0.771,0.648-1.527,0.633-2.237c-0.023-1.146-0.339-2.286-2.22-3.502c-2.157-1.397-4.477-0.705-5.886,1.641
				C19.541,41.495,19.461,41.667,19.395,41.85 M16.557,82.934l0.017,0.538c0.017,0.921-0.988,0.878-2.171,0.822
				c-0.995-0.038-4.091-0.136-5.376-0.233c0.692-0.257,4.269-1.726,5.693-2.393c1.421-0.678,2.496-1.039,2.791-1.118
				c0.114-0.173,0.123-0.476-0.015-0.669c-0.527-0.228-1.107-0.472-2.718-1.336c-1.573-0.847-4.663-2.253-5.625-2.814
				c0.899-0.027,4.283-0.027,5.788-0.027c1.69,0.014,1.69,0.317,1.737,0.874c0.009,0.098,0,0.266-0.012,0.401
				c0.187,0.173,0.658,0.206,0.871,0.047c0.096-1.352,0.145-2.112,0.463-4.581c-0.146-0.224-0.656-0.28-0.871-0.112
				c-0.04,0.263-0.049,0.286-0.115,0.627c-0.126,0.715-0.781,0.738-2.286,0.817c-1.26,0.07-3.524,0-4.997-0.027
				c-1.326-0.032-1.406-0.379-1.411-1.015c0-0.158,0.005-0.205,0.014-0.431c-0.185-0.28-0.672-0.308-0.861-0.125
				c-0.148,1.233-0.305,2.888-0.367,3.969c0.725,0.135,1.538,0.519,2.136,0.831c0.262,0.136,4.479,2.192,5.263,2.675
				c-1.355,0.724-4.447,2.047-5.58,2.579c-0.902,0.417-1.442,0.51-1.961,0.506c0.034,1.528,0.094,2.528,0.185,4.006
				c0.285,0.21,0.703,0.163,0.878-0.047c-0.004-0.225-0.004-0.215-0.014-0.459c-0.059-1.154,1.015-1.079,2.09-1.084
				c0.622,0,3.648,0.211,4.742,0.347c1.706,0.2,1.77,0.561,1.893,1.168c0.041,0.145,0.033,0.229,0.064,0.435
				c0.308,0.263,0.735,0.14,0.878-0.107c-0.139-1.482-0.168-2.342-0.243-4.085C17.207,82.673,16.736,82.686,16.557,82.934
				 M144.51,71.322c1.352,0.141,2.476,0.108,3.226,0.132c0.332-0.417,0.13-0.758-0.013-0.893c-0.242-0.011-0.669-0.062-0.884-0.123
				c-0.216-0.036-0.922-0.28-1.251-0.672c-0.334-0.389-0.515-1.052-0.629-1.496c-0.094-0.439-0.159-0.944-0.166-1.099
				c-0.058-0.944,0.255-1.028,1.751-1.394c1.285-0.308,2.739-0.669,4.245-1.023c0.935-0.224,2.028-0.51,2.322,0.542
				c0.015,0.094,0.054,0.183,0.117,0.402c0.29,0.131,0.752,0,0.854-0.238c-0.255-1.201-0.662-3.015-1.232-4.903
				c-0.194-0.116-0.716,0.014-0.837,0.257c0.028,0.158,0.052,0.243,0.085,0.449c0.189,1.126-0.947,1.262-1.826,1.481
				c-0.74,0.187-3.071,0.781-4.219,1.065c-1.706,0.426-1.995,0.355-2.353-0.472c-0.045-0.104-0.1-0.257-0.157-0.435
				c-0.223-0.07-0.673,0.069-0.847,0.257C143.11,64.502,144.02,68.078,144.51,71.322 M124.752,31.917
				c0.107-0.135,0.262-0.304,0.649-0.78c0.594-0.71,0.794-0.622,1.234-0.397c0.131,0.07,0.21,0.107,0.379,0.191
				c0.266-0.005,0.589-0.519,0.534-0.743c-0.981-0.678-2.416-1.809-3.662-2.927c-0.401-0.009-0.696,0.407-0.652,0.669
				c0.151,0.154,0.321,0.351,0.582,0.659c0.525,0.627,0.5,0.683,0,1.332c-0.254,0.323-0.406,0.506-0.582,0.706
				c-0.427,0.478-0.794,0.552-1.419,0.112c-0.24-0.168-0.393-0.285-0.777-0.607c-0.61-0.529-2.522-2.445-0.468-5.609
				c2.139-3.291,5.031-2.37,6.126-1.528c0.921,0.71,1.295,1.444,1.349,2.174c0.062,0.742-0.282,1.364-0.447,1.785
				c0.057,0.257,0.51,0.435,0.772,0.393c0.576-0.935,1.089-1.691,1.649-2.454c-0.269-0.327-0.846-1.196-2.756-2.684
				c-1.624-1.281-3.795-2.127-6.119-1.201c-1.76,0.701-3.228,2.571-3.355,4.834c-0.128,2.542,1.302,4.048,2.601,5.071
				c1.496,1.188,2.754,1.743,3.591,2.132C124.226,32.609,124.455,32.286,124.752,31.917 M91.238,146.095
				c1.644,3.099,1.979,3.422,3.251,5.895c0.456,0.88,0.641,1.253-0.149,1.478c-0.201,0.061-0.332,0.089-0.444,0.121
				c-0.152,0.252-0.044,0.726,0.177,0.837c1.581-0.271,3.184-0.598,4.908-1.019c0.223-0.295-0.018-0.72-0.168-0.842
				c-0.159,0.028-0.354,0.056-0.582,0.066c-0.848,0.021-1.128-0.234-1.755-1.328c-0.359-0.627-4.137-7.409-4.237-7.568
				c-0.089-0.159-0.265-0.145-0.348-0.098c-0.099,0.051-1.033,0.547-1.46,0.799c-0.536,2.646-1.581,6.563-1.983,8.119
				c-0.402,1.543-0.74,1.8-1.206,1.856c-0.231,0.032-0.39,0.052-0.549,0.052c-0.192,0.233-0.187,0.743,0.047,0.86
				c1.198-0.07,2.973-0.239,4.118-0.408c0.219-0.219,0.149-0.724-0.07-0.86c-0.161,0.015-0.32,0.029-0.449,0.029
				c-0.574,0-0.921-0.08-0.654-1.355C90.091,150.704,90.729,148.166,91.238,146.095 M146.999,81.742
				c3.322-1.154,3.715-1.422,6.349-2.305c0.941-0.309,1.372-0.449,1.47,0.369c0.028,0.201,0.04,0.332,0.042,0.444
				c0.238,0.196,0.725,0.168,0.86-0.032c-0.004-1.604-0.089-3.235-0.229-5.012c-0.258-0.252-0.716-0.084-0.86,0.033
				c-0.01,0.172,0.004,0.364-0.028,0.584c-0.119,0.851-0.446,1.084-1.622,1.538c-0.673,0.267-7.986,2.945-8.156,3.015
				c-0.174,0.061-0.188,0.239-0.146,0.337c0.029,0.094,0.384,1.099,0.556,1.552c2.541,0.953,6.258,2.58,7.726,3.225
				c1.46,0.636,1.671,1.02,1.647,1.482c-0.005,0.234-0.009,0.394-0.028,0.556c0.202,0.225,0.693,0.305,0.856,0.094
				c0.111-1.205,0.238-2.968,0.249-4.132c-0.181-0.252-0.701-0.271-0.867-0.08c-0.004,0.174-0.004,0.332-0.032,0.459
				c-0.089,0.574-0.218,0.901-1.444,0.434C151.415,83.589,148.973,82.556,146.999,81.742 M71.66,144.323
				c-0.541,1.253-0.856,2.318-1.095,3.029c0.29,0.444,0.683,0.351,0.853,0.258c0.075-0.234,0.258-0.604,0.374-0.805
				c0.114-0.196,0.555-0.79,1.03-0.986c0.476-0.2,1.167-0.173,1.613-0.136c0.463,0.033,0.947,0.122,1.104,0.163
				c0.902,0.229,0.893,0.543,0.785,2.086c-0.089,1.308-0.188,2.771-0.289,4.324c-0.068,0.948-0.13,2.112-1.202,2.074h-0.428
				c-0.212,0.229-0.224,0.711-0.034,0.87c1.227,0.111,3.07,0.252,5.048,0.303c0.165-0.145,0.2-0.687,0.005-0.863
				c-0.174-0.029-0.255-0.029-0.456-0.065c-1.134-0.159-0.919-1.277-0.867-2.17c0.047-0.762,0.189-3.169,0.253-4.347
				c0.106-1.758,0.266-2.02,1.168-2.108c0.103-0.01,0.274-0.019,0.461-0.019c0.128-0.188,0.138-0.654,0.009-0.884
				C78.594,145.029,74.898,144.833,71.66,144.323 M144.421,95.972l0.123-0.529c0.215-0.896,1.182-0.598,2.318-0.237
				c0.937,0.289,3.907,1.183,5.114,1.612c-0.719,0.07-4.56,0.569-6.115,0.851c-1.547,0.28-2.676,0.369-2.971,0.374
				c-0.166,0.131-0.246,0.431-0.168,0.649c0.455,0.355,0.953,0.733,2.297,1.982c1.295,1.215,3.923,3.389,4.707,4.16
				c-0.878-0.215-4.144-1.075-5.604-1.464c-1.627-0.439-1.553-0.729-1.449-1.285c0.022-0.098,0.074-0.253,0.104-0.383
				c-0.134-0.221-0.591-0.36-0.824-0.271c-0.436,1.29-0.688,2.024-1.613,4.314c0.079,0.253,0.562,0.43,0.804,0.327
				c0.103-0.252,0.117-0.261,0.265-0.588c0.311-0.632,0.951-0.501,2.423-0.197c1.241,0.271,3.413,0.907,4.827,1.318
				c1.278,0.369,1.269,0.725,1.107,1.342c-0.04,0.148-0.049,0.187-0.128,0.406c0.111,0.332,0.579,0.478,0.804,0.337
				c0.453-1.146,1.035-2.698,1.369-3.73c-0.657-0.317-1.337-0.893-1.843-1.346c-0.219-0.206-3.777-3.277-4.411-3.937
				c1.496-0.347,4.829-0.842,6.058-1.065c0.991-0.168,1.52-0.127,2.024,0.02c0.369-1.502,0.565-2.478,0.842-3.937
				c-0.208-0.271-0.624-0.328-0.856-0.183c-0.039,0.239-0.049,0.225-0.102,0.454c-0.236,1.141-1.26,0.784-2.291,0.508
				c-0.607-0.148-3.482-1.14-4.497-1.547c-1.599-0.635-1.575-0.99-1.533-1.612c0.003-0.145,0.028-0.229,0.052-0.43
				c-0.234-0.337-0.676-0.318-0.869-0.132c-0.253,1.464-0.439,2.31-0.818,4.012C143.73,96.074,144.177,96.167,144.421,95.972
				 M83.013,11.846c0-0.931-0.747-1.674-1.673-1.674c-0.917,0-1.664,0.743-1.664,1.674c0,0.916,0.747,1.663,1.664,1.663
				C82.266,13.509,83.013,12.762,83.013,11.846 M64.166,150.438c-0.146,0.294-0.379,0.664-0.743,0.944
				c-0.317,0.248-0.842,0.533-1.828,0.285c-0.245-0.061-0.733-0.243-1.323-0.426c0,0,1.451-4.796,1.801-5.922
				c0.519-1.683,0.726-1.897,1.612-1.771c0.109,0.015,0.28,0.047,0.463,0.089c0.165-0.145,0.287-0.636,0.215-0.879
				c-1.424-0.402-3.256-0.995-4.768-1.516c-0.229,0.132-0.411,0.632-0.327,0.833c0.182,0.089,0.354,0.159,0.5,0.238
				c0.818,0.444,0.77,0.879,0.309,2.347c-0.258,0.812-0.231,0.757-1.938,5.908c-0.751-0.247-1.481-0.48-1.785-0.612
				c-0.889-0.359-0.858-1.173-0.872-1.435c0-0.257,0.044-0.552,0.126-0.869c-0.176-0.268-0.716-0.365-0.886-0.248
				c-0.128,0.401-0.689,2.346-0.88,2.852c3.92,1.509,6.122,2.196,9.777,3.127c0.096-0.15,1.248-2.254,1.382-2.487
				C64.882,150.583,64.435,150.392,64.166,150.438 M34.749,135.231c-0.262,0.197-0.625,0.431-1.084,0.51
				c-0.397,0.079-1.001,0.079-1.768-0.565c-0.184-0.164-0.551-0.533-1.004-0.967c0,0,3.473-3.629,4.299-4.479
				c1.222-1.263,1.518-1.375,2.25-0.856c0.094,0.057,0.231,0.168,0.379,0.291c0.215-0.058,0.537-0.444,0.582-0.697
				c-1.092-1-2.467-2.346-3.574-3.506c-0.267,0.023-0.659,0.383-0.678,0.599c0.128,0.163,0.248,0.309,0.336,0.438
				c0.542,0.771,0.291,1.146-0.791,2.249c-0.599,0.617-0.541,0.575-4.388,4.394c-0.561-0.561-1.098-1.116-1.311-1.369
				c-0.629-0.72-0.236-1.444-0.129-1.669c0.121-0.238,0.289-0.473,0.5-0.715c-0.035-0.327-0.465-0.65-0.679-0.641
				c-0.303,0.309-1.67,1.795-2.072,2.164c2.867,3.155,4.481,4.722,7.322,7.199c0.152-0.085,2.127-1.44,2.358-1.585
				C35.329,135.68,35.014,135.316,34.749,135.231 M131.066,122.657c0.104-0.13,0.22-0.262,0.354-0.383
				c0.652-0.612,1.096-0.916,2.269-0.01c0.272,0.196,1.174,0.953,1.469,1.179c-0.76,0.962-1.115,1.379-1.849,2.243
				c0.138,0.309,0.479,0.616,0.844,0.748c0.71-0.86,1.07-1.305,1.889-2.301c0.282,0.212,2.362,1.829,2.586,2.029
				c0.231,0.21,0.344,0.36,0.049,0.743c-0.287,0.389-0.685,0.931-1.406,1.683c-1.156,1.184-2.938,0.094-3.455-0.205
				c-0.374,0.126-0.546,0.439-0.555,0.864c0.764,0.552,2.309,1.562,2.97,2.071c2.656-2.949,4.086-4.791,5.719-7.082
				c-0.079-0.215-0.44-0.524-0.701-0.524c-0.069,0.08-0.128,0.15-0.264,0.295c-0.727,0.838-1.325,0.332-2.335-0.435
				c-0.645-0.504-2.036-1.607-3.445-2.654c-1.572-1.169-1.493-1.501-1.027-2.268c0.062-0.121,0.074-0.145,0.178-0.295
				c-0.127-0.262-0.508-0.514-0.714-0.514c-1.062,1.495-2.176,2.959-3.251,4.24C130.457,122.34,130.833,122.605,131.066,122.657
				 M105.249,21.815c1.345,0.557,2.898,1.229,4.689,2.122c0.25-0.098,0.486-0.621,0.42-0.827c-0.206-0.116-0.369-0.201-0.499-0.29
				c-0.763-0.537-0.684-0.972-0.029-2.369c0.382-0.818,1.15-2.459,1.823-3.903c0.473-1.005,0.894-1.781,1.954-1.426
				c0.089,0.027,0.221,0.089,0.426,0.163c0.25-0.065,0.51-0.569,0.393-0.813c-1.255-0.622-3.153-1.485-4.925-2.233
				c-0.215,0.069-0.437,0.589-0.319,0.827c0.148,0.083,0.266,0.126,0.448,0.229c1.005,0.541,0.439,1.504,0.085,2.331
				c-0.353,0.819-1.224,2.829-1.717,3.945c-0.729,1.706-0.983,1.768-1.885,1.543c-0.157-0.032-0.35-0.094-0.524-0.159
				C105.404,21.082,105.21,21.559,105.249,21.815 M29.414,118.418c-0.849-1.184-1.795-2.595-2.835-4.292
				c-0.257-0.051-0.738,0.263-0.79,0.468c0.112,0.216,0.205,0.365,0.266,0.51c0.352,0.86,0.055,1.188-1.248,2.024
				c-0.757,0.486-2.284,1.458-3.622,2.318c-0.933,0.607-1.718,1.037-2.412,0.163c-0.065-0.078-0.147-0.201-0.276-0.359
				c-0.25-0.084-0.737,0.2-0.765,0.458c0.735,1.211,1.859,2.959,2.972,4.529c0.213,0.062,0.677-0.248,0.706-0.524
				c-0.087-0.153-0.161-0.256-0.26-0.43c-0.559-1.005,0.438-1.5,1.19-2.022c0.723-0.515,2.537-1.729,3.533-2.413
				c1.55-1.042,1.79-0.963,2.436-0.299c0.11,0.116,0.248,0.271,0.359,0.421C28.895,118.97,29.312,118.66,29.414,118.418
				 M140.463,56.757c1.341-0.178,2.437-0.468,3.168-0.636c0.229-0.477-0.056-0.767-0.222-0.864
				c-0.233,0.051-0.661,0.098-0.871,0.103c-0.233,0-0.973-0.07-1.389-0.364c-0.411-0.309-0.746-0.902-0.953-1.305
				c-0.206-0.411-0.389-0.869-0.435-1.042c-0.274-0.889,0.004-1.038,1.383-1.758c1.16-0.594,2.464-1.258,3.831-1.978
				c0.862-0.443,1.863-0.981,2.407-0.047c0.04,0.084,0.098,0.178,0.208,0.369c0.316,0.062,0.733-0.183,0.771-0.43
				c-0.528-1.108-1.372-2.781-2.354-4.474c-0.21-0.069-0.675,0.183-0.738,0.445c0.073,0.158,0.102,0.233,0.185,0.41
				c0.447,1.071-0.612,1.454-1.416,1.874c-0.682,0.355-2.791,1.478-3.842,2.029c-1.548,0.833-1.856,0.833-2.398,0.112
				c-0.067-0.094-0.161-0.233-0.264-0.389c-0.225-0.013-0.637,0.211-0.75,0.45C137.526,50.549,139.217,53.742,140.463,56.757
				 M129.154,38.694c0.077-0.251,0.463-0.598,0.69-0.621c0.124,0.136,0.274,0.276,0.401,0.379c0.713,0.589,0.956,0.659,2.385-0.547
				c0.928-0.785,2.608-2.192,3.283-2.772c0.688-0.584,1.618-1.2,0.953-2.127c-0.107-0.178-0.195-0.271-0.295-0.401
				c0.011-0.262,0.427-0.627,0.65-0.607c1.258,1.458,2.566,3.085,3.422,4.196c0.005,0.268-0.46,0.608-0.706,0.557
				c-0.158-0.163-0.245-0.275-0.319-0.346c-0.773-0.789-1.513-0.275-2.378,0.416c-1.243,0.992-2.669,2.122-3.37,2.684
				c-1.205,0.958-1.477,1.309-1.023,2.136c0.07,0.15,0.166,0.28,0.312,0.481c-0.039,0.211-0.48,0.57-0.742,0.553
				C131.209,41.078,130.119,39.766,129.154,38.694 M106.147,139.7c-1.619,0.617-3.184,1.655-3.511,1.898
				c0.269,0.921,0.47,1.894,0.738,2.837c0.225,0.108,0.85-0.009,0.951-0.215c-0.034-0.397-0.185-1.023,0.03-1.65
				c0.31-0.854,1.13-1.453,2.044-1.8c0.846-0.322,3.57-0.954,5.105,2.497c1.611,3.575-0.67,5.473-1.941,5.95
				c-1.161,0.426-2.159,0.238-2.739-0.089c-0.565-0.31-0.875-0.879-1.115-1.206c-0.22-0.075-0.719,0.233-0.808,0.463
				c0.418,0.879,0.954,1.715,1.294,2.59c0.406-0.053,2.403-0.333,3.992-0.958c1.802-0.716,3.513-2.033,3.934-4.357
				c0.338-1.86-0.435-4.09-2.239-5.427C109.84,138.737,107.751,139.098,106.147,139.7 M91.68,17.66c0,0,1.024,0.823,3.228,1.337
				c2.219,0.509,4.125-0.533,4.525-2.318c0.446-1.992-1-3.038-2.241-3.969c-1.358-1.028-1.98-1.553-1.845-2.38
				c0.096-0.556,0.647-1.575,2.33-1.108c1.875,0.524,1.625,2.17,1.636,2.398c0.31,0.267,0.637,0.304,0.935,0.117
				c0.153-0.593,0.327-2.163,0.268-2.454c-0.501-0.219-1.225-0.691-2.86-1.057c-3.432-0.756-4.395,1.459-4.426,2.674
				c-0.011,0.954,0.359,1.818,2.34,3.268c1.38,1.001,2.035,1.771,1.688,2.791c-0.229,0.711-0.932,1.322-2.248,1.042
				c-2.068-0.439-1.897-1.87-1.893-3.07c-0.27-0.215-0.758-0.268-1.001-0.164C91.958,15.421,91.743,16.543,91.68,17.66
				 M22.862,107.732c0,0,0.107-1.313-0.692-3.427c-0.799-2.123-2.722-3.137-4.424-2.474c-1.908,0.734-1.97,2.501-2.067,4.067
				c-0.102,1.697-0.183,2.506-0.954,2.852c-0.519,0.229-1.672,0.337-2.216-1.337c-0.594-1.832,0.898-2.538,1.09-2.669
				c0.046-0.416-0.104-0.706-0.419-0.86c-0.582,0.206-1.984,0.931-2.192,1.146c0.096,0.542,0.104,1.412,0.718,2.964
				c1.265,3.286,3.639,2.855,4.675,2.196c0.789-0.519,1.313-1.309,1.415-3.748c0.072-1.712,0.344-2.684,1.394-2.969
				c0.71-0.192,1.613,0.056,2.108,1.299c0.775,1.968-0.504,2.622-1.511,3.287c-0.027,0.346,0.206,0.784,0.426,0.92
				C20.839,108.756,21.904,108.302,22.862,107.732 M49.962,136.82c-0.396,0.066-0.502,0.548-0.474,0.716
				c0.117,0.084,0.107,0.075,0.304,0.229c0.644,0.48,0.528,0.771-0.365,1.449c-0.522,0.401-0.652,0.532-0.856,0.678
				c-0.442-0.28-2.992-1.823-3.43-2.08c0.085-0.389,0.085-0.351,0.24-1.128c0.153-0.761,0.321-1.364,1.064-0.958
				c0.188,0.094,0.224,0.132,0.317,0.192c0.307-0.065,0.533-0.52,0.454-0.743c-0.584-0.365-2.051-1.341-3.782-2.566
				c-0.359,0.042-0.563,0.51-0.557,0.701c0.206,0.183,0.278,0.219,0.45,0.365c0.682,0.537,0.294,1.789,0.209,2.271
				c-0.126,0.715-1.688,8.409-1.724,8.591c-0.036,0.183,0.043,0.201,0.142,0.225c0.086,0.02,1.373,0.355,1.647,0.383
				c0.431-0.345,5.418-4.09,6.713-5.076c1.37-1.032,1.657-0.977,2.137-0.854c0.233,0.056,0.396,0.141,0.468,0.168
				c0.289-0.089,0.514-0.565,0.383-0.79C52.132,138.004,50.351,137.046,49.962,136.82 M44.238,143.239c0,0-0.056,0.042-0.115,0.019
				c-0.06-0.052-0.038-0.116-0.038-0.116l0.884-4.446l2.896,1.753L44.238,143.239 M122.134,130.329
				c0.355-0.291,1.874-1.614,2.847-2.507c0.26-0.042,0.621,0.338,0.612,0.637c-0.054,0.061-0.201,0.182-0.329,0.379
				c-0.293,0.401-0.446,0.654,0.049,2.295c0.468,1.565,2.188,7.554,2.36,8.082c-0.124,0.252-0.893,1.332-0.943,1.411
				c-0.047,0.079-0.105,0.136-0.254,0.038c-0.167-0.089-6.812-4.272-7.425-4.646c-0.418-0.253-1.461-1.061-2.213-0.618
				c-0.186,0.122-0.245,0.164-0.483,0.295c-0.183-0.056-0.55-0.406-0.472-0.771c1.769-1.177,3.196-2.201,3.746-2.631
				c0.24,0.014,0.584,0.392,0.546,0.695c-0.098,0.075-0.145,0.1-0.304,0.234c-0.646,0.557-0.129,0.916,0.519,1.337
				c0.667,0.416,0.637,0.402,0.971,0.617c0.392-0.309,2.737-2.154,3.157-2.478c-0.062-0.229-0.125-0.406-0.318-1.043
				c-0.329-1.064-0.562-1.267-1.242-0.846c-0.209,0.145-0.194,0.127-0.325,0.221C122.468,130.983,122.055,130.712,122.134,130.329
				 M126.107,137.942l-1.319-4.375l-2.669,2.085l3.856,2.407c0,0,0.053,0.038,0.108,0
				C126.133,138.018,126.107,137.942,126.107,137.942"/>
			<path fill="#FFFFFF" d="M100.592,89.772c0,4.688-3.732,7.661-18.658,10.532c-6.131,1.183-8.105,2.52-8.105,4.309
				c0,1.558,1.716,3.291,5.109,4.109l0.217,3.856c-6.729-1.238-11.011-4.366-11.011-7.998c0-3.211,1.868-5.932,13.302-8.38
				c10.16-2.18,12.927-3.291,12.614-6.087c-0.246-2.216-3.165-3.277-8.732-3.151l0.191-3.716
				C96.352,83.159,100.592,86.197,100.592,89.772 M92.67,117.417c0-4.164-3.468-6.661-8.522-7.736l-0.204,3.608
				c2.431,0.646,4.156,2.133,4.156,4.428c0,3.141-2.949,6.213-7.498,6.213c-6.357,0-8.323-3.208-9.144-4.946
				c-0.29-0.621-0.38-0.822-0.622-0.771c-0.289,0.062-0.392,0.472-0.343,0.991c0.366,3.912,5.331,7.399,11.092,7.399
				C88.08,126.603,92.67,122.447,92.67,117.417 M66.613,40.873c2.493-1.112,5.665-1.805,8.121-1.86
				c-0.607-0.696-6.142-0.481-10.751,1.579c-2.107,0.941-3.262,1.932-3.262,2.754c0,0.786,1.14,1.725,3.771,1.375
				C62.375,44.047,63.273,42.359,66.613,40.873 M78.115,30.089c-8.775-0.743-13.146,1.524-12.832,3.455
				c-2.917,1.047-5.074,2.001-4.979,3.637c0.052,0.874,0.855,1.837,2.468,2.291c3.116-1.258,6.984-1.954,10.527-1.954
				c2.936,0,4.396,0.705,4.396,1.574c0,0.87-1.493,1.402-4.396,1.402c-0.902,0-1.222-0.051-1.739-0.135
				c-1.322,0.312-2.524,0.753-2.954,1.15c0.832,0.354,2.548,0.672,4.146,0.672c5.286,0,7.228-0.901,10.214-2.716
				c1.225-0.742,2.763-1.467,3.905-1.326c10.29,1.256,15.681,5.59,15.681,11.143c0,6.77-7.689,11.813-21.189,17.88
				c-14.565,6.54-19.979,8.882-19.6,13.864c0.289,3.819,4.875,6.891,16.057,6.269l-0.202-4.006
				c-6.366,0.079-8.229-1.267-8.308-3.034c-0.108-2.351,4.316-4.342,10.263-6.693c24.783-9.793,31.434-15.58,31.434-24.362
				c0-9.298-8.316-13.87-21.469-16.376C84.082,31.786,83.067,30.51,78.115,30.089 M71.033,32.375
				c1.795-0.285,2.809,0.038,2.938,0.604c0.14,0.621-0.722,1.243-2.486,1.523c-1.812,0.289-2.816-0.032-2.947-0.599
				C68.396,33.282,69.251,32.664,71.033,32.375 M84.921,53.415c0.941-0.51,1.528-1.234,1.528-2.038c0-1.552-2.179-2.81-4.864-2.81
				c-2.688,0-4.863,1.258-4.863,2.81c0,0.804,0.589,1.528,1.523,2.038l0.508,13.205c0.941-0.416,4.453-1.944,5.762-2.622
				L84.921,53.415z M84.205,74.758c-1.496,0.612-4.992,2.015-5.165,2.085l0.696,18.329c0.555-0.104,3.016-0.594,3.721-0.738
				L84.205,74.758z M79.971,102.768c0.635,15.981,0.801,16.917,1.614,18.417c0.82-1.509,1.021-2.72,1.664-19.09
				C82.749,102.193,80.737,102.566,79.971,102.768"/>
		</g>
	</g>
</g>
<g>
</g>
<g>
</g>
<g>
</g>
<g>
</g>
<g>
</g>
<g>
</g>
</svg>
