<?xml version="1.0" encoding="utf-8"?>
<!-- Generator: Adobe Illustrator 16.0.0, SVG Export Plug-In . SVG Version: 6.00 Build 0)  -->
<!DOCTYPE svg PUBLIC "-//W3C//DTD SVG 1.1//EN" "http://www.w3.org/Graphics/SVG/1.1/DTD/svg11.dtd">
<svg version="1.1" id="Layer_1" xmlns="http://www.w3.org/2000/svg" xmlns:xlink="http://www.w3.org/1999/xlink" x="0px" y="0px"
	 width="178.5px" height="82.333px" viewBox="0 0 178.5 82.333" style="enable-background:new 0 0 178.5 82.333;"
	 xml:space="preserve">
<g>
	<path d="M31.327,61.362v-0.359l1.819-1.123h-1.819v-0.292h2.251v0.343l-1.816,1.139h1.816v0.291H31.327z"/>
	<path d="M32.562,59.204v-0.769h0.284v0.769H32.562z"/>
	<path d="M31.327,58.08v-0.276h2.251v0.276H31.327z"/>
	<path d="M31.327,57.39v-0.281h0.312v0.281H31.327z M31.944,57.39v-0.281h1.633v0.281H31.944z"/>
	<path d="M31.937,56.693v-0.262h0.233c-0.096-0.078-0.165-0.16-0.207-0.247S31.9,56,31.9,55.895c0-0.233,0.081-0.391,0.244-0.472
		c0.089-0.045,0.216-0.067,0.381-0.067h1.053v0.28h-1.034c-0.1,0-0.181,0.015-0.242,0.044c-0.102,0.049-0.153,0.138-0.153,0.267
		c0,0.065,0.007,0.119,0.02,0.161c0.022,0.076,0.067,0.142,0.135,0.199c0.054,0.046,0.11,0.076,0.168,0.089
		c0.058,0.014,0.14,0.021,0.247,0.021h0.86v0.276H31.937z"/>
	<path d="M31.327,54.954v-0.265h1.307l-0.697-0.707v-0.353l0.61,0.631l1.031-0.666v0.352l-0.835,0.517l0.219,0.226h0.616v0.265
		H31.327z"/>
	<path d="M31.981,52.365c0.055-0.109,0.125-0.191,0.212-0.249c0.083-0.055,0.179-0.091,0.29-0.109
		c0.076-0.017,0.196-0.024,0.362-0.024v1.193c0.167-0.005,0.301-0.044,0.402-0.117c0.101-0.073,0.151-0.186,0.151-0.339
		c0-0.143-0.048-0.257-0.143-0.342c-0.056-0.048-0.12-0.082-0.192-0.102v-0.271c0.06,0.007,0.127,0.031,0.201,0.071
		c0.074,0.04,0.135,0.085,0.182,0.135c0.082,0.083,0.137,0.186,0.166,0.309c0.016,0.066,0.024,0.14,0.024,0.223
		c0,0.203-0.074,0.375-0.223,0.517c-0.149,0.141-0.357,0.211-0.625,0.211c-0.264,0-0.478-0.071-0.642-0.213
		c-0.165-0.143-0.247-0.328-0.247-0.558C31.9,52.585,31.927,52.473,31.981,52.365z M32.626,52.266
		c-0.12,0.011-0.215,0.037-0.287,0.078c-0.133,0.075-0.199,0.2-0.199,0.375c0,0.125,0.046,0.231,0.137,0.316s0.208,0.13,0.349,0.135
		V52.266z"/>
	<path d="M31.987,50.731c0.031-0.049,0.084-0.104,0.161-0.167h-0.829V50.3h2.259v0.249h-0.229c0.102,0.064,0.174,0.14,0.219,0.228
		c0.045,0.087,0.067,0.188,0.067,0.301c0,0.182-0.077,0.34-0.23,0.473s-0.358,0.2-0.614,0.2c-0.239,0-0.446-0.061-0.622-0.182
		c-0.175-0.122-0.263-0.295-0.263-0.521C31.907,50.921,31.934,50.816,31.987,50.731z M33.217,51.347
		c0.119-0.074,0.178-0.193,0.178-0.357c0-0.127-0.055-0.231-0.165-0.313c-0.11-0.082-0.267-0.123-0.473-0.123
		c-0.208,0-0.361,0.042-0.46,0.127c-0.1,0.084-0.149,0.188-0.149,0.312c0,0.138,0.053,0.25,0.159,0.336
		c0.106,0.086,0.263,0.129,0.469,0.129C32.952,51.458,33.099,51.421,33.217,51.347z"/>
	<path d="M33.063,48.852c0.092-0.008,0.162-0.032,0.211-0.07c0.089-0.071,0.133-0.194,0.133-0.369c0-0.104-0.022-0.196-0.067-0.275
		s-0.113-0.119-0.206-0.119c-0.07,0-0.124,0.032-0.161,0.095c-0.022,0.041-0.048,0.121-0.078,0.24l-0.055,0.223
		c-0.035,0.142-0.073,0.247-0.116,0.314c-0.075,0.12-0.178,0.181-0.31,0.181c-0.155,0-0.281-0.057-0.377-0.17
		c-0.096-0.113-0.144-0.266-0.144-0.457c0-0.25,0.073-0.431,0.218-0.542c0.092-0.069,0.191-0.103,0.297-0.101v0.261
		c-0.062,0.005-0.118,0.027-0.169,0.067c-0.072,0.064-0.108,0.177-0.108,0.337c0,0.107,0.02,0.188,0.06,0.243
		c0.04,0.055,0.092,0.082,0.157,0.082c0.071,0,0.128-0.036,0.171-0.108c0.025-0.042,0.048-0.103,0.067-0.185l0.044-0.186
		c0.048-0.202,0.094-0.337,0.139-0.406c0.07-0.107,0.182-0.161,0.333-0.161c0.146,0,0.272,0.056,0.378,0.168
		c0.106,0.112,0.16,0.283,0.16,0.513c0,0.247-0.056,0.422-0.167,0.525c-0.111,0.103-0.248,0.158-0.411,0.166V48.852z"/>
	<path d="M31.937,47.171h1.089c0.084,0,0.152-0.013,0.206-0.039c0.098-0.047,0.147-0.137,0.147-0.267
		c0-0.187-0.086-0.314-0.257-0.382c-0.092-0.037-0.218-0.055-0.378-0.055h-0.806v-0.276h1.641v0.26l-0.242-0.003
		c0.062,0.035,0.115,0.079,0.158,0.131c0.086,0.104,0.129,0.229,0.129,0.376c0,0.229-0.078,0.386-0.234,0.469
		c-0.084,0.045-0.196,0.067-0.335,0.067h-1.116V47.171z"/>
	<path d="M32.002,44.789c0.036-0.052,0.088-0.104,0.156-0.159h-0.207v-0.254h1.493c0.208,0,0.373,0.031,0.494,0.092
		c0.223,0.114,0.334,0.329,0.334,0.646c0,0.176-0.04,0.324-0.119,0.444c-0.079,0.12-0.203,0.188-0.372,0.202v-0.28
		c0.074-0.013,0.13-0.04,0.17-0.08c0.061-0.062,0.092-0.159,0.092-0.292c0-0.21-0.075-0.348-0.224-0.413
		c-0.088-0.039-0.245-0.056-0.471-0.053c0.084,0.055,0.146,0.121,0.187,0.198c0.041,0.078,0.062,0.18,0.062,0.307
		c0,0.177-0.063,0.332-0.189,0.465c-0.126,0.133-0.335,0.199-0.626,0.199c-0.275,0-0.489-0.067-0.644-0.201
		c-0.154-0.134-0.231-0.295-0.231-0.484C31.907,44.996,31.939,44.884,32.002,44.789z M32.298,44.755
		c-0.098,0.083-0.147,0.189-0.147,0.319c0,0.193,0.091,0.325,0.273,0.396c0.097,0.038,0.224,0.057,0.381,0.057
		c0.185,0,0.326-0.038,0.422-0.112s0.145-0.175,0.145-0.301c0-0.197-0.089-0.336-0.268-0.417c-0.101-0.044-0.219-0.067-0.354-0.067
		C32.547,44.63,32.396,44.671,32.298,44.755z"/>
	<path d="M32.584,43.076c-0.008-0.063-0.035-0.105-0.08-0.127c-0.024-0.012-0.06-0.019-0.106-0.019c-0.095,0-0.163,0.034-0.206,0.1
		c-0.042,0.067-0.064,0.163-0.064,0.287c0,0.144,0.039,0.246,0.117,0.306c0.043,0.034,0.107,0.056,0.192,0.066v0.257
		c-0.203-0.005-0.344-0.071-0.423-0.197c-0.079-0.126-0.119-0.272-0.119-0.438c0-0.193,0.037-0.35,0.11-0.47
		c0.074-0.12,0.188-0.179,0.343-0.179h0.946c0.028,0,0.051-0.006,0.069-0.018c0.017-0.012,0.026-0.037,0.026-0.074
		c0-0.012,0-0.026-0.002-0.042c-0.001-0.015-0.003-0.032-0.007-0.049h0.204c0.012,0.042,0.02,0.075,0.023,0.098
		c0.003,0.022,0.004,0.053,0.004,0.092c0,0.095-0.034,0.164-0.101,0.207c-0.036,0.022-0.086,0.039-0.152,0.048
		c0.074,0.056,0.138,0.137,0.192,0.242c0.054,0.105,0.081,0.221,0.081,0.348c0,0.152-0.046,0.276-0.139,0.373
		s-0.208,0.145-0.347,0.145c-0.152,0-0.27-0.048-0.354-0.143c-0.083-0.095-0.135-0.22-0.154-0.374L32.584,43.076z M33.33,43.657
		c0.046-0.058,0.069-0.127,0.069-0.207c0-0.097-0.022-0.191-0.067-0.282c-0.075-0.153-0.196-0.23-0.366-0.23h-0.222
		c0.021,0.034,0.04,0.077,0.054,0.13c0.014,0.053,0.024,0.105,0.031,0.156l0.021,0.167c0.013,0.1,0.034,0.175,0.062,0.226
		c0.048,0.085,0.125,0.128,0.229,0.128C33.221,43.745,33.284,43.715,33.33,43.657z"/>
	<path d="M31.937,42.203V41.94h0.283c-0.055-0.021-0.122-0.074-0.201-0.158c-0.079-0.083-0.119-0.18-0.119-0.29
		c0-0.005,0-0.014,0.001-0.026s0.003-0.033,0.006-0.063h0.292c-0.003,0.016-0.005,0.031-0.006,0.045
		c-0.001,0.014-0.001,0.029-0.001,0.045c0,0.139,0.044,0.246,0.134,0.32c0.09,0.075,0.192,0.112,0.309,0.112h0.944v0.276H31.937z"/>
</g>
<g>
	<path d="M35.993,61.333v-1.007c0-0.199,0.056-0.36,0.169-0.482c0.113-0.123,0.271-0.184,0.476-0.184
		c0.176,0,0.329,0.055,0.459,0.164c0.13,0.109,0.195,0.277,0.195,0.502v0.703h0.952v0.305H35.993z M36.303,60.15
		c-0.032,0.067-0.048,0.159-0.048,0.275v0.603h0.78v-0.603c0-0.136-0.029-0.246-0.087-0.331c-0.058-0.085-0.161-0.127-0.308-0.127
		C36.474,59.968,36.362,60.028,36.303,60.15z"/>
	<path d="M36.767,58.116c0.141-0.145,0.348-0.217,0.622-0.217c0.265,0,0.483,0.064,0.655,0.191c0.173,0.128,0.259,0.326,0.259,0.595
		c0,0.224-0.076,0.402-0.229,0.534c-0.153,0.132-0.358,0.198-0.615,0.198c-0.276,0-0.495-0.069-0.659-0.208
		c-0.163-0.139-0.245-0.326-0.245-0.56C36.556,58.439,36.626,58.262,36.767,58.116z M37.857,58.288
		c-0.138-0.067-0.292-0.101-0.461-0.101c-0.153,0-0.277,0.024-0.374,0.073c-0.151,0.077-0.227,0.209-0.227,0.397
		c0,0.167,0.064,0.288,0.193,0.364c0.129,0.076,0.284,0.113,0.465,0.113c0.175,0,0.32-0.038,0.436-0.113
		c0.117-0.076,0.175-0.196,0.175-0.361C38.065,58.479,37.996,58.355,37.857,58.288z"/>
	<path d="M36.145,57.505v-0.279h0.458v-0.262h0.225v0.262h1.071c0.057,0,0.096-0.02,0.115-0.059
		c0.011-0.021,0.017-0.057,0.017-0.107c0-0.014,0-0.028-0.001-0.043c-0.001-0.016-0.002-0.033-0.005-0.054h0.219
		c0.009,0.032,0.016,0.064,0.02,0.099c0.004,0.034,0.006,0.071,0.006,0.111c0,0.129-0.033,0.216-0.099,0.262
		c-0.066,0.046-0.151,0.069-0.257,0.069h-1.086v0.222h-0.225v-0.222H36.145z"/>
	<path d="M36.648,55.675c0.055-0.109,0.125-0.191,0.212-0.249c0.083-0.055,0.179-0.091,0.29-0.109
		c0.076-0.017,0.196-0.024,0.362-0.024v1.193c0.167-0.005,0.301-0.044,0.402-0.117c0.101-0.073,0.151-0.186,0.151-0.339
		c0-0.143-0.048-0.257-0.143-0.342c-0.056-0.048-0.12-0.082-0.192-0.102v-0.271c0.06,0.007,0.127,0.031,0.201,0.071
		c0.074,0.04,0.135,0.085,0.182,0.135c0.082,0.083,0.137,0.186,0.166,0.309c0.016,0.066,0.024,0.14,0.024,0.223
		c0,0.203-0.074,0.375-0.223,0.517c-0.149,0.141-0.357,0.211-0.625,0.211c-0.264,0-0.478-0.071-0.642-0.213
		c-0.165-0.143-0.247-0.328-0.247-0.558C36.566,55.896,36.594,55.783,36.648,55.675z M37.292,55.576
		c-0.12,0.011-0.215,0.037-0.287,0.078c-0.133,0.075-0.199,0.2-0.199,0.375c0,0.125,0.046,0.231,0.137,0.316s0.208,0.13,0.349,0.135
		V55.576z"/>
	<path d="M36.603,54.943v-0.262h0.233c-0.096-0.078-0.165-0.16-0.207-0.247s-0.062-0.184-0.062-0.29
		c0-0.233,0.081-0.391,0.244-0.472c0.089-0.045,0.216-0.067,0.381-0.067h1.053v0.28H37.21c-0.1,0-0.181,0.015-0.242,0.044
		c-0.102,0.049-0.153,0.138-0.153,0.267c0,0.065,0.007,0.119,0.02,0.161c0.022,0.076,0.067,0.142,0.135,0.199
		c0.054,0.046,0.11,0.076,0.168,0.089c0.058,0.014,0.14,0.021,0.247,0.021h0.86v0.276H36.603z"/>
	<path d="M36.145,53.143v-0.279h0.458v-0.262h0.225v0.262h1.071c0.057,0,0.096-0.02,0.115-0.059
		c0.011-0.021,0.017-0.057,0.017-0.107c0-0.014,0-0.028-0.001-0.043c-0.001-0.016-0.002-0.033-0.005-0.054h0.219
		c0.009,0.032,0.016,0.064,0.02,0.099c0.004,0.034,0.006,0.071,0.006,0.111c0,0.129-0.033,0.216-0.099,0.262
		c-0.066,0.046-0.151,0.069-0.257,0.069h-1.086v0.222h-0.225v-0.222H36.145z"/>
	<path d="M35.993,52.326v-0.281h0.312v0.281H35.993z M36.611,52.326v-0.281h1.633v0.281H36.611z"/>
	<path d="M37.251,50.749c-0.008-0.063-0.035-0.105-0.08-0.127c-0.024-0.012-0.06-0.019-0.106-0.019c-0.095,0-0.163,0.034-0.206,0.1
		c-0.042,0.067-0.064,0.163-0.064,0.287c0,0.144,0.039,0.246,0.117,0.306c0.043,0.034,0.107,0.056,0.192,0.066v0.257
		c-0.203-0.005-0.344-0.071-0.423-0.197c-0.079-0.126-0.119-0.272-0.119-0.438c0-0.193,0.037-0.35,0.11-0.47
		c0.074-0.12,0.188-0.179,0.343-0.179h0.946c0.028,0,0.051-0.006,0.069-0.018c0.017-0.012,0.026-0.037,0.026-0.074
		c0-0.012,0-0.026-0.002-0.042c-0.001-0.015-0.003-0.032-0.007-0.049h0.204c0.012,0.042,0.02,0.075,0.023,0.098
		c0.003,0.022,0.004,0.053,0.004,0.092c0,0.095-0.034,0.164-0.101,0.207c-0.036,0.022-0.086,0.039-0.152,0.048
		c0.074,0.056,0.138,0.137,0.192,0.242c0.054,0.105,0.081,0.221,0.081,0.348c0,0.152-0.046,0.276-0.139,0.373
		s-0.208,0.145-0.347,0.145c-0.152,0-0.27-0.048-0.354-0.143c-0.083-0.095-0.135-0.22-0.154-0.374L37.251,50.749z M37.996,51.33
		c0.046-0.058,0.069-0.127,0.069-0.207c0-0.097-0.022-0.191-0.067-0.282c-0.075-0.153-0.196-0.23-0.366-0.23H37.41
		c0.021,0.034,0.04,0.077,0.054,0.13c0.014,0.053,0.024,0.105,0.031,0.156l0.021,0.167c0.013,0.1,0.034,0.175,0.062,0.226
		c0.048,0.085,0.125,0.128,0.229,0.128C37.888,51.417,37.95,51.388,37.996,51.33z"/>
	<path d="M35.993,49.875V49.6h2.251v0.276H35.993z"/>
	<path d="M35.993,48.277v-0.359l1.819-1.123h-1.819v-0.292h2.251v0.343l-1.816,1.139h1.816v0.291H35.993z"/>
	<path d="M37.228,46.119V45.35h0.284v0.769H37.228z"/>
	<path d="M35.993,44.995v-0.276h2.251v0.276H35.993z"/>
	<path d="M35.993,44.305v-0.281h0.312v0.281H35.993z M36.611,44.305v-0.281h1.633v0.281H36.611z"/>
	<path d="M36.603,43.608v-0.262h0.233c-0.096-0.078-0.165-0.16-0.207-0.247s-0.062-0.184-0.062-0.29
		c0-0.233,0.081-0.391,0.244-0.472c0.089-0.045,0.216-0.067,0.381-0.067h1.053v0.28H37.21c-0.1,0-0.181,0.015-0.242,0.044
		c-0.102,0.049-0.153,0.138-0.153,0.267c0,0.065,0.007,0.119,0.02,0.161c0.022,0.076,0.067,0.142,0.135,0.199
		c0.054,0.046,0.11,0.076,0.168,0.089c0.058,0.014,0.14,0.021,0.247,0.021h0.86v0.276H36.603z"/>
	<path d="M35.993,41.869v-0.265H37.3l-0.697-0.707v-0.353l0.61,0.631l1.031-0.666v0.352l-0.835,0.517l0.219,0.226h0.616v0.265
		H35.993z"/>
	<path d="M36.648,39.28c0.055-0.109,0.125-0.191,0.212-0.249c0.083-0.055,0.179-0.091,0.29-0.109
		c0.076-0.017,0.196-0.024,0.362-0.024v1.193c0.167-0.005,0.301-0.044,0.402-0.117c0.101-0.073,0.151-0.186,0.151-0.339
		c0-0.143-0.048-0.257-0.143-0.342c-0.056-0.048-0.12-0.082-0.192-0.102V38.92c0.06,0.007,0.127,0.031,0.201,0.071
		c0.074,0.04,0.135,0.085,0.182,0.135c0.082,0.083,0.137,0.186,0.166,0.309c0.016,0.066,0.024,0.14,0.024,0.223
		c0,0.203-0.074,0.375-0.223,0.517c-0.149,0.141-0.357,0.211-0.625,0.211c-0.264,0-0.478-0.071-0.642-0.213
		c-0.165-0.143-0.247-0.328-0.247-0.558C36.566,39.5,36.594,39.388,36.648,39.28z M37.292,39.181
		c-0.12,0.011-0.215,0.037-0.287,0.078c-0.133,0.075-0.199,0.2-0.199,0.375c0,0.125,0.046,0.231,0.137,0.316s0.208,0.13,0.349,0.135
		V39.181z"/>
	<path d="M36.653,37.646c0.031-0.049,0.084-0.104,0.161-0.167h-0.829v-0.265h2.259v0.249h-0.229c0.102,0.064,0.174,0.14,0.219,0.228
		c0.045,0.087,0.067,0.188,0.067,0.301c0,0.182-0.077,0.34-0.23,0.473s-0.358,0.2-0.614,0.2c-0.239,0-0.446-0.061-0.622-0.182
		c-0.175-0.122-0.263-0.295-0.263-0.521C36.574,37.836,36.601,37.731,36.653,37.646z M37.884,38.262
		c0.119-0.074,0.178-0.193,0.178-0.357c0-0.127-0.055-0.231-0.165-0.313c-0.11-0.082-0.267-0.123-0.473-0.123
		c-0.208,0-0.361,0.042-0.46,0.127c-0.1,0.084-0.149,0.188-0.149,0.312c0,0.138,0.053,0.25,0.159,0.336
		c0.106,0.086,0.263,0.129,0.469,0.129C37.619,38.374,37.766,38.336,37.884,38.262z"/>
</g>
<g>
	<path d="M41.315,59.508c0.199-0.149,0.454-0.224,0.765-0.224c0.336,0,0.615,0.085,0.838,0.256c0.261,0.2,0.392,0.486,0.392,0.856
		c0,0.347-0.114,0.619-0.343,0.817c-0.221,0.177-0.5,0.265-0.837,0.265c-0.304,0-0.565-0.076-0.781-0.227
		c-0.278-0.194-0.417-0.481-0.417-0.861C40.932,59.993,41.06,59.699,41.315,59.508z M42.75,59.777
		c-0.192-0.12-0.414-0.18-0.665-0.18c-0.265,0-0.478,0.069-0.64,0.208c-0.162,0.139-0.242,0.328-0.242,0.568
		c0,0.233,0.08,0.423,0.24,0.57c0.16,0.147,0.396,0.22,0.708,0.22c0.25,0,0.46-0.063,0.631-0.189
		c0.171-0.126,0.257-0.331,0.257-0.614C43.039,60.091,42.942,59.897,42.75,59.777z"/>
	<path d="M42.228,59.03v-0.769h0.284v0.769H42.228z"/>
	<path d="M40.993,57.905v-0.276h2.251v0.276H40.993z"/>
	<path d="M40.993,57.215v-0.281h0.312v0.281H40.993z M41.611,57.215v-0.281h1.633v0.281H41.611z"/>
	<path d="M41.603,56.519v-0.262h0.233c-0.096-0.078-0.165-0.16-0.207-0.247s-0.062-0.184-0.062-0.29
		c0-0.233,0.081-0.391,0.244-0.472c0.089-0.045,0.216-0.067,0.381-0.067h1.053v0.28H42.21c-0.1,0-0.181,0.015-0.242,0.044
		c-0.102,0.049-0.153,0.138-0.153,0.267c0,0.065,0.007,0.119,0.02,0.161c0.022,0.076,0.067,0.142,0.135,0.199
		c0.054,0.046,0.11,0.076,0.168,0.089c0.058,0.014,0.14,0.021,0.247,0.021h0.86v0.276H41.603z"/>
	<path d="M40.993,54.779v-0.265H42.3l-0.697-0.707v-0.353l0.61,0.631l1.031-0.666v0.352l-0.835,0.517l0.219,0.226h0.616v0.265
		H40.993z"/>
	<path d="M41.648,52.19c0.055-0.109,0.125-0.191,0.212-0.249c0.083-0.055,0.179-0.091,0.29-0.109
		c0.076-0.017,0.196-0.024,0.362-0.024v1.193c0.167-0.005,0.301-0.044,0.402-0.117c0.101-0.073,0.151-0.186,0.151-0.339
		c0-0.143-0.048-0.257-0.143-0.342c-0.056-0.048-0.12-0.082-0.192-0.102v-0.271c0.06,0.007,0.127,0.031,0.201,0.071
		c0.074,0.04,0.135,0.085,0.182,0.135c0.082,0.083,0.137,0.186,0.166,0.309c0.016,0.066,0.024,0.14,0.024,0.223
		c0,0.203-0.074,0.375-0.223,0.517c-0.149,0.141-0.357,0.211-0.625,0.211c-0.264,0-0.478-0.071-0.642-0.213
		c-0.165-0.143-0.247-0.328-0.247-0.558C41.566,52.411,41.594,52.298,41.648,52.19z M42.292,52.091
		c-0.12,0.011-0.215,0.037-0.287,0.078c-0.133,0.075-0.199,0.2-0.199,0.375c0,0.125,0.046,0.231,0.137,0.316s0.208,0.13,0.349,0.135
		V52.091z"/>
	<path d="M41.653,50.557c0.031-0.049,0.084-0.104,0.161-0.167h-0.829v-0.265h2.259v0.249h-0.229c0.102,0.064,0.174,0.14,0.219,0.228
		c0.045,0.087,0.067,0.188,0.067,0.301c0,0.182-0.077,0.34-0.23,0.473s-0.358,0.2-0.614,0.2c-0.239,0-0.446-0.061-0.622-0.182
		c-0.175-0.122-0.263-0.295-0.263-0.521C41.574,50.746,41.601,50.641,41.653,50.557z M42.884,51.172
		c0.119-0.074,0.178-0.193,0.178-0.357c0-0.127-0.055-0.231-0.165-0.313c-0.11-0.082-0.267-0.123-0.473-0.123
		c-0.208,0-0.361,0.042-0.46,0.127c-0.1,0.084-0.149,0.188-0.149,0.312c0,0.138,0.053,0.25,0.159,0.336
		c0.106,0.086,0.263,0.129,0.469,0.129C42.619,51.284,42.766,51.247,42.884,51.172z"/>
	<path d="M41.058,47.306c0.117-0.221,0.323-0.355,0.617-0.405v0.302c-0.164,0.036-0.284,0.11-0.359,0.224
		c-0.075,0.113-0.112,0.255-0.112,0.428c0,0.204,0.078,0.376,0.234,0.515c0.156,0.14,0.389,0.209,0.699,0.209
		c0.268,0,0.485-0.058,0.653-0.173c0.168-0.115,0.252-0.303,0.252-0.563c0-0.199-0.059-0.364-0.177-0.495
		c-0.118-0.131-0.309-0.198-0.572-0.201v0.705H42.04v-0.989h1.205v0.196l-0.29,0.074c0.113,0.102,0.192,0.191,0.236,0.27
		c0.076,0.132,0.113,0.299,0.113,0.502c0,0.262-0.086,0.488-0.259,0.677c-0.217,0.206-0.514,0.309-0.892,0.309
		c-0.377,0-0.677-0.101-0.9-0.302c-0.212-0.191-0.318-0.439-0.318-0.743C40.935,47.638,40.976,47.458,41.058,47.306z"/>
	<path d="M42.251,45.52c-0.008-0.063-0.035-0.105-0.08-0.127c-0.024-0.012-0.06-0.019-0.106-0.019c-0.095,0-0.163,0.034-0.206,0.1
		c-0.042,0.067-0.064,0.163-0.064,0.287c0,0.144,0.039,0.246,0.117,0.306c0.043,0.034,0.107,0.056,0.192,0.066v0.257
		c-0.203-0.005-0.344-0.071-0.423-0.197c-0.079-0.126-0.119-0.272-0.119-0.438c0-0.193,0.037-0.35,0.11-0.47
		c0.074-0.12,0.188-0.179,0.343-0.179h0.946c0.028,0,0.051-0.006,0.069-0.018c0.017-0.012,0.026-0.037,0.026-0.074
		c0-0.012,0-0.026-0.002-0.042c-0.001-0.015-0.003-0.032-0.007-0.049h0.204c0.012,0.042,0.02,0.075,0.023,0.098
		c0.003,0.022,0.004,0.053,0.004,0.092c0,0.095-0.034,0.164-0.101,0.207c-0.036,0.022-0.086,0.039-0.152,0.048
		c0.074,0.056,0.138,0.137,0.192,0.242c0.054,0.105,0.081,0.221,0.081,0.348c0,0.152-0.046,0.276-0.139,0.373
		s-0.208,0.145-0.347,0.145c-0.152,0-0.27-0.048-0.354-0.143c-0.083-0.095-0.135-0.22-0.154-0.374L42.251,45.52z M42.996,46.101
		c0.046-0.058,0.069-0.127,0.069-0.207c0-0.097-0.022-0.191-0.067-0.282c-0.075-0.153-0.196-0.23-0.366-0.23H42.41
		c0.021,0.034,0.04,0.077,0.054,0.13c0.014,0.053,0.024,0.105,0.031,0.156l0.021,0.167c0.013,0.1,0.034,0.175,0.062,0.226
		c0.048,0.085,0.125,0.128,0.229,0.128C42.888,46.188,42.95,46.159,42.996,46.101z"/>
	<path d="M40.993,44.647v-0.276h2.251v0.276H40.993z"/>
	<path d="M40.993,43.92v-0.359l1.819-1.123h-1.819v-0.292h2.251v0.343l-1.816,1.139h1.816v0.291H40.993z"/>
	<path d="M40.993,40.997v-0.344l2.251-0.817v0.334l-0.674,0.235v0.883l0.674,0.244v0.312L40.993,40.997z M42.322,40.491
		l-0.995,0.347l0.995,0.36V40.491z"/>
	<path d="M41.69,38.513c0.09-0.116,0.245-0.186,0.464-0.209v0.268c-0.101,0.017-0.186,0.054-0.252,0.112
		c-0.067,0.059-0.1,0.152-0.1,0.281c0,0.175,0.085,0.301,0.257,0.377c0.111,0.049,0.249,0.073,0.412,0.073
		c0.164,0,0.302-0.035,0.415-0.104s0.168-0.179,0.168-0.328c0-0.114-0.035-0.205-0.104-0.272c-0.07-0.067-0.165-0.113-0.286-0.139
		v-0.268c0.217,0.031,0.376,0.107,0.477,0.23s0.151,0.279,0.151,0.47c0,0.215-0.078,0.386-0.235,0.514
		c-0.157,0.127-0.353,0.191-0.588,0.191c-0.288,0-0.512-0.07-0.673-0.21c-0.16-0.14-0.24-0.318-0.24-0.535
		C41.556,38.78,41.601,38.629,41.69,38.513z"/>
</g>
<g>
	<path d="M45.493,61.37v-0.437l1.903-0.647l-1.903-0.643v-0.434h2.251V59.5h-1.329c-0.046,0-0.122-0.001-0.229-0.003
		c-0.106-0.002-0.22-0.003-0.341-0.003l1.898,0.643v0.302l-1.898,0.649h0.069c0.055,0,0.139-0.001,0.252-0.005
		c0.113-0.003,0.196-0.004,0.249-0.004h1.329v0.291H45.493z"/>
	<path d="M46.751,57.905c-0.008-0.063-0.035-0.105-0.08-0.127c-0.024-0.012-0.06-0.019-0.106-0.019c-0.095,0-0.163,0.034-0.206,0.1
		c-0.042,0.067-0.064,0.163-0.064,0.287c0,0.144,0.039,0.246,0.117,0.306c0.043,0.034,0.107,0.056,0.192,0.066v0.257
		c-0.203-0.005-0.344-0.071-0.423-0.197c-0.079-0.126-0.119-0.272-0.119-0.438c0-0.193,0.037-0.35,0.11-0.47
		c0.074-0.12,0.188-0.179,0.343-0.179h0.946c0.028,0,0.051-0.006,0.069-0.018c0.017-0.012,0.026-0.037,0.026-0.074
		c0-0.012,0-0.026-0.002-0.042c-0.001-0.015-0.003-0.032-0.007-0.049h0.204c0.012,0.042,0.02,0.075,0.023,0.098
		c0.003,0.022,0.004,0.053,0.004,0.092c0,0.095-0.034,0.164-0.101,0.207c-0.036,0.022-0.086,0.039-0.152,0.048
		c0.074,0.056,0.138,0.137,0.192,0.242c0.054,0.105,0.081,0.221,0.081,0.348c0,0.152-0.046,0.276-0.139,0.373
		s-0.208,0.145-0.347,0.145c-0.152,0-0.27-0.048-0.354-0.143c-0.083-0.095-0.135-0.22-0.154-0.374L46.751,57.905z M47.496,58.486
		c0.046-0.058,0.069-0.127,0.069-0.207c0-0.097-0.022-0.191-0.067-0.282c-0.075-0.153-0.196-0.23-0.366-0.23H46.91
		c0.021,0.034,0.04,0.077,0.054,0.13c0.014,0.053,0.024,0.105,0.031,0.156l0.021,0.167c0.013,0.1,0.034,0.175,0.062,0.226
		c0.048,0.085,0.125,0.128,0.229,0.128C47.388,58.573,47.45,58.544,47.496,58.486z"/>
	<path d="M46.103,57.04v-0.262h0.233c-0.096-0.078-0.165-0.16-0.207-0.247s-0.062-0.184-0.062-0.29c0-0.233,0.081-0.391,0.244-0.472
		c0.089-0.045,0.216-0.067,0.381-0.067h1.053v0.28H46.71c-0.1,0-0.181,0.015-0.242,0.044c-0.102,0.049-0.153,0.138-0.153,0.267
		c0,0.065,0.007,0.119,0.02,0.161c0.022,0.076,0.067,0.142,0.135,0.199c0.054,0.046,0.11,0.076,0.168,0.089
		c0.058,0.014,0.14,0.021,0.247,0.021h0.86v0.276H46.103z"/>
	<path d="M46.103,55.294v-0.262h0.233c-0.096-0.078-0.165-0.16-0.207-0.247s-0.062-0.184-0.062-0.29
		c0-0.233,0.081-0.391,0.244-0.472c0.089-0.045,0.216-0.067,0.381-0.067h1.053v0.28H46.71c-0.1,0-0.181,0.015-0.242,0.044
		c-0.102,0.049-0.153,0.138-0.153,0.267c0,0.065,0.007,0.119,0.02,0.161c0.022,0.076,0.067,0.142,0.135,0.199
		c0.054,0.046,0.11,0.076,0.168,0.089c0.058,0.014,0.14,0.021,0.247,0.021h0.86v0.276H46.103z"/>
	<path d="M46.267,52.359c0.141-0.145,0.348-0.217,0.622-0.217c0.265,0,0.483,0.064,0.655,0.191c0.173,0.128,0.259,0.326,0.259,0.595
		c0,0.224-0.076,0.402-0.229,0.534c-0.153,0.132-0.358,0.198-0.615,0.198c-0.276,0-0.495-0.069-0.659-0.208
		c-0.163-0.139-0.245-0.326-0.245-0.56C46.056,52.682,46.126,52.504,46.267,52.359z M47.357,52.53
		c-0.138-0.067-0.292-0.101-0.461-0.101c-0.153,0-0.277,0.024-0.374,0.073c-0.151,0.077-0.227,0.209-0.227,0.397
		c0,0.167,0.064,0.288,0.193,0.364c0.129,0.076,0.284,0.113,0.465,0.113c0.175,0,0.32-0.038,0.436-0.113
		c0.117-0.076,0.175-0.196,0.175-0.361C47.565,52.722,47.496,52.598,47.357,52.53z"/>
	<path d="M47.229,51.639c0.092-0.008,0.162-0.032,0.211-0.07c0.089-0.071,0.133-0.194,0.133-0.369c0-0.104-0.022-0.196-0.067-0.275
		s-0.113-0.119-0.206-0.119c-0.07,0-0.124,0.032-0.161,0.095c-0.022,0.041-0.048,0.121-0.078,0.24l-0.055,0.223
		c-0.035,0.142-0.073,0.247-0.116,0.314c-0.075,0.12-0.178,0.181-0.31,0.181c-0.155,0-0.281-0.057-0.377-0.17
		c-0.096-0.113-0.144-0.266-0.144-0.457c0-0.25,0.073-0.431,0.218-0.542c0.092-0.069,0.191-0.103,0.297-0.101v0.261
		c-0.062,0.005-0.118,0.027-0.169,0.067c-0.072,0.064-0.108,0.177-0.108,0.337c0,0.107,0.02,0.188,0.06,0.243
		c0.04,0.055,0.092,0.082,0.157,0.082c0.071,0,0.128-0.036,0.171-0.108c0.025-0.042,0.048-0.103,0.067-0.185l0.044-0.186
		c0.048-0.202,0.094-0.337,0.139-0.406c0.07-0.107,0.182-0.161,0.333-0.161c0.146,0,0.272,0.056,0.378,0.168
		c0.106,0.112,0.16,0.283,0.16,0.513c0,0.247-0.056,0.422-0.167,0.525c-0.111,0.103-0.248,0.158-0.411,0.166V51.639z"/>
	<path d="M46.148,49.22c0.055-0.109,0.125-0.191,0.212-0.249c0.083-0.055,0.179-0.091,0.29-0.109
		c0.076-0.017,0.196-0.024,0.362-0.024v1.193c0.167-0.005,0.301-0.044,0.402-0.117c0.101-0.073,0.151-0.186,0.151-0.339
		c0-0.143-0.048-0.257-0.143-0.342c-0.056-0.048-0.12-0.082-0.192-0.102v-0.271c0.06,0.007,0.127,0.031,0.201,0.071
		c0.074,0.04,0.135,0.085,0.182,0.135c0.082,0.083,0.137,0.186,0.166,0.309c0.016,0.066,0.024,0.14,0.024,0.223
		c0,0.203-0.074,0.375-0.223,0.517c-0.149,0.141-0.357,0.211-0.625,0.211c-0.264,0-0.478-0.071-0.642-0.213
		c-0.165-0.143-0.247-0.328-0.247-0.558C46.066,49.441,46.094,49.329,46.148,49.22z M46.792,49.121
		c-0.12,0.011-0.215,0.037-0.287,0.078c-0.133,0.075-0.199,0.2-0.199,0.375c0,0.125,0.046,0.231,0.137,0.316s0.208,0.13,0.349,0.135
		V49.121z"/>
</g>
<g>
	<path d="M50.493,61.354v-0.308h0.93v-1.157h-0.93v-0.308h2.251v0.308h-1.053v1.157h1.053v0.308H50.493z"/>
	<path d="M51.148,58.119c0.055-0.109,0.125-0.191,0.212-0.249c0.083-0.055,0.179-0.091,0.29-0.109
		c0.076-0.017,0.196-0.024,0.362-0.024v1.193c0.167-0.005,0.301-0.044,0.402-0.117c0.101-0.073,0.151-0.186,0.151-0.339
		c0-0.143-0.048-0.257-0.143-0.342c-0.056-0.048-0.12-0.082-0.192-0.102v-0.271c0.06,0.007,0.127,0.031,0.201,0.071
		c0.074,0.04,0.135,0.085,0.182,0.135c0.082,0.083,0.137,0.186,0.166,0.309c0.016,0.066,0.024,0.14,0.024,0.223
		c0,0.203-0.074,0.375-0.223,0.517c-0.149,0.141-0.357,0.211-0.625,0.211c-0.264,0-0.478-0.071-0.642-0.213
		c-0.165-0.143-0.247-0.328-0.247-0.558C51.066,58.339,51.094,58.227,51.148,58.119z M51.792,58.02
		c-0.12,0.011-0.215,0.037-0.287,0.078c-0.133,0.075-0.199,0.2-0.199,0.375c0,0.125,0.046,0.231,0.137,0.316s0.208,0.13,0.349,0.135
		V58.02z"/>
	<path d="M51.103,57.543v-0.357l0.578-0.377l-0.578-0.382l0.008-0.335l0.792,0.553l0.841-0.578v0.352l-0.616,0.408l0.616,0.396
		v0.349l-0.841-0.578L51.103,57.543z"/>
	<path d="M50.493,55.781v-0.359l1.819-1.123h-1.819v-0.292h2.251v0.343l-1.816,1.139h1.816v0.291H50.493z"/>
	<path d="M50.493,52.858v-0.344l2.251-0.817v0.334l-0.674,0.235v0.883l0.674,0.244v0.312L50.493,52.858z M51.822,52.352
		l-0.995,0.347l0.995,0.36V52.352z"/>
	<path d="M51.19,50.374c0.09-0.116,0.245-0.186,0.464-0.209v0.268c-0.101,0.017-0.186,0.054-0.252,0.112
		c-0.067,0.059-0.1,0.152-0.1,0.281c0,0.175,0.085,0.301,0.257,0.377c0.111,0.049,0.249,0.073,0.412,0.073
		c0.164,0,0.302-0.035,0.415-0.104s0.168-0.179,0.168-0.328c0-0.114-0.035-0.205-0.104-0.272c-0.07-0.067-0.165-0.113-0.286-0.139
		v-0.268c0.217,0.031,0.376,0.107,0.477,0.23s0.151,0.279,0.151,0.47c0,0.215-0.078,0.386-0.235,0.514
		c-0.157,0.127-0.353,0.191-0.588,0.191c-0.288,0-0.512-0.07-0.673-0.21c-0.16-0.14-0.24-0.318-0.24-0.535
		C51.056,50.641,51.101,50.49,51.19,50.374z"/>
</g>
<g>
	<path d="M57.077,61.172v0.367l-1.154-0.797l-1.097,0.747v-0.38l0.861-0.568l-0.861-0.563v-0.362l1.097,0.746l1.154-0.783v0.377
		l-0.926,0.6L57.077,61.172z"/>
	<path d="M55.437,58.28v-0.305c0.104,0.039,0.345,0.125,0.721,0.259c0.281,0.101,0.512,0.184,0.689,0.251
		c0.419,0.159,0.674,0.271,0.766,0.337S57.75,59,57.75,59.159c0,0.039-0.001,0.068-0.005,0.089
		c-0.003,0.021-0.008,0.047-0.017,0.078h-0.251c0.013-0.048,0.021-0.083,0.024-0.104c0.003-0.021,0.005-0.041,0.005-0.057
		c0-0.051-0.009-0.089-0.025-0.113s-0.038-0.044-0.062-0.06c-0.008-0.005-0.05-0.023-0.125-0.055s-0.132-0.055-0.168-0.069
		l-1.689,0.607v-0.313l1.337-0.439L55.437,58.28z"/>
	<path d="M54.826,57.729v-0.276h2.251v0.276H54.826z"/>
	<path d="M55.6,55.85c0.142-0.145,0.349-0.217,0.622-0.217c0.265,0,0.482,0.064,0.655,0.191c0.173,0.128,0.259,0.326,0.259,0.595
		c0,0.224-0.076,0.402-0.229,0.534c-0.153,0.132-0.358,0.198-0.615,0.198c-0.275,0-0.495-0.069-0.658-0.208s-0.245-0.326-0.245-0.56
		C55.389,56.173,55.459,55.996,55.6,55.85z M56.69,56.021c-0.138-0.067-0.292-0.101-0.461-0.101c-0.153,0-0.277,0.024-0.374,0.073
		c-0.15,0.077-0.227,0.209-0.227,0.397c0,0.167,0.064,0.288,0.193,0.364c0.129,0.076,0.283,0.113,0.465,0.113
		c0.175,0,0.32-0.038,0.437-0.113c0.116-0.076,0.175-0.196,0.175-0.361C56.898,56.213,56.829,56.089,56.69,56.021z"/>
	<path d="M56.562,55.13c0.092-0.008,0.162-0.032,0.212-0.07c0.089-0.071,0.133-0.194,0.133-0.369c0-0.104-0.022-0.196-0.066-0.275
		c-0.045-0.079-0.113-0.119-0.206-0.119c-0.07,0-0.124,0.032-0.161,0.095c-0.022,0.041-0.049,0.121-0.078,0.24l-0.056,0.223
		c-0.034,0.142-0.073,0.247-0.116,0.314c-0.074,0.12-0.178,0.181-0.31,0.181c-0.155,0-0.28-0.057-0.377-0.17
		c-0.096-0.113-0.144-0.266-0.144-0.457c0-0.25,0.072-0.431,0.218-0.542c0.092-0.069,0.19-0.103,0.297-0.101v0.261
		c-0.062,0.005-0.118,0.027-0.169,0.067c-0.072,0.064-0.108,0.177-0.108,0.337c0,0.107,0.02,0.188,0.06,0.243
		c0.04,0.055,0.092,0.082,0.157,0.082c0.071,0,0.128-0.036,0.171-0.108c0.025-0.042,0.048-0.103,0.067-0.185l0.045-0.186
		c0.048-0.202,0.094-0.337,0.139-0.406c0.07-0.107,0.182-0.161,0.333-0.161c0.146,0,0.272,0.056,0.378,0.168
		c0.106,0.112,0.16,0.283,0.16,0.513c0,0.247-0.056,0.422-0.167,0.525c-0.11,0.103-0.248,0.158-0.411,0.166V55.13z"/>
	<path d="M55.481,52.711c0.055-0.109,0.125-0.191,0.212-0.249c0.083-0.055,0.18-0.091,0.29-0.109
		c0.075-0.017,0.196-0.024,0.361-0.024v1.193c0.167-0.005,0.301-0.044,0.402-0.117c0.101-0.073,0.151-0.186,0.151-0.339
		c0-0.143-0.048-0.257-0.144-0.342c-0.056-0.048-0.119-0.082-0.192-0.102v-0.271c0.061,0.007,0.128,0.031,0.201,0.071
		c0.074,0.04,0.135,0.085,0.182,0.135c0.082,0.083,0.137,0.186,0.166,0.309c0.016,0.066,0.024,0.14,0.024,0.223
		c0,0.203-0.074,0.375-0.223,0.517c-0.149,0.141-0.357,0.211-0.625,0.211c-0.264,0-0.478-0.071-0.642-0.213
		c-0.165-0.143-0.247-0.328-0.247-0.558C55.399,52.932,55.427,52.819,55.481,52.711z M56.126,52.612
		c-0.12,0.011-0.215,0.037-0.287,0.078c-0.133,0.075-0.199,0.2-0.199,0.375c0,0.125,0.046,0.231,0.138,0.316
		c0.091,0.085,0.207,0.13,0.349,0.135V52.612z"/>
</g>
<g>
	<path d="M35.254,73.696v2.66c0,0.312,0.059,0.572,0.177,0.779c0.175,0.312,0.47,0.469,0.886,0.469c0.498,0,0.837-0.169,1.016-0.507
		c0.096-0.184,0.145-0.431,0.145-0.741v-2.66h0.589v2.417c0,0.529-0.072,0.937-0.215,1.222c-0.262,0.52-0.758,0.779-1.487,0.779
		s-1.224-0.26-1.484-0.779c-0.144-0.285-0.215-0.692-0.215-1.222v-2.417H35.254z"/>
	<path d="M38.887,74.862h0.501v0.445c0.148-0.184,0.306-0.315,0.472-0.396s0.351-0.12,0.554-0.12c0.445,0,0.746,0.155,0.902,0.466
		c0.086,0.17,0.129,0.413,0.129,0.729V78h-0.536v-1.978c0-0.191-0.028-0.346-0.085-0.463c-0.094-0.195-0.264-0.293-0.51-0.293
		c-0.125,0-0.228,0.013-0.308,0.038c-0.145,0.043-0.271,0.129-0.381,0.258c-0.088,0.104-0.145,0.211-0.171,0.32
		c-0.026,0.111-0.04,0.269-0.04,0.474V78h-0.527V74.862z"/>
	<path d="M42.224,73.696h0.536v0.598h-0.536V73.696z M42.224,74.877h0.536V78h-0.536V74.877z"/>
	<path d="M43.683,73.696h1.926c0.381,0,0.688,0.108,0.922,0.323c0.234,0.217,0.351,0.52,0.351,0.91c0,0.336-0.104,0.629-0.313,0.877
		c-0.209,0.25-0.528,0.374-0.959,0.374h-1.344V78h-0.583V73.696z M45.944,74.288c-0.128-0.061-0.303-0.091-0.526-0.091h-1.152v1.491
		h1.152c0.26,0,0.471-0.056,0.633-0.167c0.162-0.111,0.243-0.308,0.243-0.589C46.293,74.616,46.177,74.401,45.944,74.288z"/>
	<path d="M47.573,74.862h0.501v0.542c0.041-0.105,0.142-0.233,0.302-0.385s0.345-0.228,0.554-0.228c0.01,0,0.026,0.001,0.05,0.003
		s0.063,0.006,0.12,0.012v0.557c-0.031-0.006-0.06-0.01-0.086-0.012s-0.055-0.003-0.086-0.003c-0.266,0-0.47,0.086-0.612,0.257
		s-0.214,0.367-0.214,0.59V78h-0.527V74.862z"/>
	<path d="M51.83,75.176c0.277,0.269,0.416,0.665,0.416,1.188c0,0.505-0.122,0.923-0.367,1.252c-0.244,0.33-0.624,0.495-1.137,0.495
		c-0.429,0-0.769-0.146-1.021-0.438c-0.252-0.292-0.378-0.684-0.378-1.176c0-0.526,0.133-0.946,0.398-1.258
		c0.266-0.312,0.623-0.469,1.071-0.469C51.213,74.771,51.553,74.906,51.83,75.176z M51.502,77.261
		c0.128-0.265,0.193-0.559,0.193-0.882c0-0.293-0.046-0.531-0.139-0.715c-0.146-0.288-0.4-0.433-0.759-0.433
		c-0.319,0-0.55,0.123-0.695,0.369c-0.145,0.245-0.217,0.542-0.217,0.889c0,0.334,0.072,0.612,0.217,0.834
		c0.145,0.223,0.375,0.334,0.689,0.334C51.137,77.657,51.374,77.525,51.502,77.261z"/>
	<path d="M52.999,73.986h0.533v0.876h0.501v0.431h-0.501v2.048c0,0.109,0.037,0.183,0.111,0.22c0.041,0.021,0.109,0.032,0.205,0.032
		c0.025,0,0.053-0.001,0.082-0.002s0.063-0.005,0.103-0.01V78c-0.061,0.018-0.124,0.03-0.189,0.038s-0.136,0.012-0.212,0.012
		c-0.246,0-0.413-0.063-0.501-0.188c-0.088-0.127-0.132-0.29-0.132-0.491v-2.077h-0.425v-0.431h0.425V73.986z"/>
</g>
<g>
	<path d="M110.338,54.945c0.014,0.244,0.068,0.442,0.166,0.595c0.187,0.285,0.516,0.428,0.985,0.428
		c0.211,0,0.403-0.031,0.575-0.094c0.336-0.121,0.503-0.338,0.503-0.65c0-0.234-0.071-0.401-0.213-0.501
		c-0.144-0.098-0.369-0.183-0.675-0.255l-0.565-0.132c-0.369-0.086-0.63-0.181-0.783-0.284c-0.265-0.18-0.397-0.448-0.397-0.806
		c0-0.387,0.131-0.704,0.391-0.952s0.629-0.372,1.105-0.372c0.439,0,0.812,0.109,1.119,0.326c0.308,0.219,0.461,0.566,0.461,1.045
		h-0.548c-0.028-0.23-0.088-0.407-0.18-0.53c-0.171-0.225-0.46-0.337-0.868-0.337c-0.33,0-0.566,0.072-0.711,0.217
		c-0.144,0.145-0.216,0.312-0.216,0.504c0,0.211,0.085,0.365,0.255,0.463c0.112,0.062,0.365,0.141,0.758,0.234l0.586,0.138
		c0.281,0.066,0.499,0.157,0.652,0.272c0.266,0.201,0.397,0.493,0.397,0.876c0,0.477-0.169,0.817-0.507,1.022
		s-0.731,0.308-1.179,0.308c-0.522,0-0.931-0.137-1.226-0.41c-0.296-0.271-0.44-0.64-0.435-1.104H110.338z"/>
	<path d="M113.889,52.03h0.536v0.598h-0.536V52.03z M113.889,53.21h0.536v3.123h-0.536V53.21z"/>
	<path d="M115.222,53.196h0.521v0.445c0.125-0.154,0.238-0.267,0.34-0.337c0.174-0.119,0.371-0.179,0.592-0.179
		c0.25,0,0.451,0.062,0.604,0.185c0.086,0.07,0.164,0.174,0.234,0.311c0.117-0.168,0.255-0.292,0.413-0.373s0.336-0.122,0.533-0.122
		c0.422,0,0.709,0.152,0.861,0.457c0.082,0.164,0.123,0.385,0.123,0.662v2.089h-0.548v-2.18c0-0.209-0.052-0.353-0.157-0.431
		c-0.104-0.078-0.231-0.117-0.382-0.117c-0.207,0-0.386,0.069-0.534,0.208c-0.15,0.139-0.225,0.37-0.225,0.694v1.825h-0.536v-2.048
		c0-0.213-0.025-0.368-0.076-0.466c-0.08-0.146-0.229-0.22-0.448-0.22c-0.199,0-0.381,0.077-0.543,0.231
		c-0.164,0.154-0.245,0.434-0.245,0.838v1.664h-0.527V53.196z"/>
	<path d="M120.176,53.21h0.516v0.416c0.105-0.143,0.221-0.253,0.347-0.331c0.179-0.117,0.388-0.176,0.628-0.176
		c0.357,0,0.66,0.136,0.908,0.409c0.248,0.271,0.373,0.661,0.373,1.167c0,0.684-0.18,1.172-0.538,1.465
		c-0.228,0.186-0.492,0.278-0.794,0.278c-0.238,0-0.437-0.052-0.598-0.155c-0.094-0.059-0.199-0.159-0.314-0.302v1.603h-0.527V53.21
		z M122.16,55.669c0.163-0.205,0.245-0.514,0.245-0.924c0-0.25-0.036-0.465-0.108-0.645c-0.138-0.346-0.389-0.519-0.753-0.519
		c-0.366,0-0.617,0.183-0.753,0.548c-0.072,0.195-0.108,0.443-0.108,0.744c0,0.242,0.036,0.448,0.108,0.618
		c0.138,0.324,0.389,0.486,0.753,0.486C121.791,55.979,121.996,55.876,122.16,55.669z"/>
	<path d="M123.571,52.03h0.527v4.304h-0.527V52.03z"/>
	<path d="M126.828,53.283c0.207,0.104,0.365,0.239,0.475,0.405c0.104,0.158,0.174,0.343,0.209,0.554
		c0.031,0.145,0.047,0.375,0.047,0.691h-2.282c0.01,0.319,0.085,0.575,0.224,0.769c0.14,0.192,0.355,0.289,0.648,0.289
		c0.273,0,0.491-0.091,0.654-0.273c0.091-0.106,0.155-0.229,0.193-0.368h0.519c-0.014,0.115-0.06,0.244-0.136,0.385
		c-0.078,0.143-0.164,0.258-0.259,0.348c-0.159,0.156-0.355,0.262-0.591,0.316c-0.125,0.031-0.268,0.047-0.427,0.047
		c-0.388,0-0.718-0.143-0.987-0.426c-0.27-0.285-0.404-0.683-0.404-1.194c0-0.504,0.136-0.913,0.408-1.228
		c0.271-0.314,0.627-0.472,1.064-0.472C126.406,53.125,126.62,53.178,126.828,53.283z M127.017,54.514
		c-0.021-0.229-0.071-0.411-0.147-0.548c-0.145-0.254-0.383-0.381-0.719-0.381c-0.24,0-0.441,0.088-0.604,0.262
		c-0.163,0.176-0.249,0.397-0.259,0.667H127.017z"/>
	<path d="M131.341,52.343c0.298,0.287,0.462,0.613,0.495,0.979h-0.568c-0.063-0.277-0.189-0.497-0.379-0.659
		c-0.188-0.162-0.453-0.243-0.795-0.243c-0.416,0-0.752,0.149-1.008,0.447c-0.257,0.298-0.385,0.755-0.385,1.371
		c0,0.504,0.115,0.913,0.347,1.227s0.576,0.471,1.034,0.471c0.423,0,0.744-0.165,0.965-0.495c0.117-0.174,0.204-0.402,0.262-0.686
		h0.568c-0.051,0.453-0.217,0.833-0.498,1.14c-0.338,0.369-0.793,0.554-1.367,0.554c-0.494,0-0.909-0.151-1.245-0.454
		c-0.442-0.401-0.663-1.02-0.663-1.856c0-0.635,0.166-1.155,0.498-1.562c0.359-0.441,0.854-0.662,1.485-0.662
		C130.625,51.913,131.043,52.056,131.341,52.343z"/>
	<path d="M134.498,53.283c0.207,0.104,0.365,0.239,0.475,0.405c0.104,0.158,0.174,0.343,0.209,0.554
		c0.031,0.145,0.047,0.375,0.047,0.691h-2.282c0.01,0.319,0.085,0.575,0.224,0.769c0.14,0.192,0.355,0.289,0.648,0.289
		c0.273,0,0.491-0.091,0.654-0.273c0.091-0.106,0.155-0.229,0.193-0.368h0.519c-0.014,0.115-0.06,0.244-0.136,0.385
		c-0.078,0.143-0.164,0.258-0.259,0.348c-0.159,0.156-0.355,0.262-0.591,0.316c-0.125,0.031-0.268,0.047-0.427,0.047
		c-0.388,0-0.718-0.143-0.987-0.426c-0.27-0.285-0.404-0.683-0.404-1.194c0-0.504,0.136-0.913,0.408-1.228
		c0.271-0.314,0.627-0.472,1.064-0.472C134.076,53.125,134.29,53.178,134.498,53.283z M134.687,54.514
		c-0.021-0.229-0.071-0.411-0.147-0.548c-0.145-0.254-0.383-0.381-0.719-0.381c-0.24,0-0.441,0.088-0.604,0.262
		c-0.163,0.176-0.249,0.397-0.259,0.667H134.687z"/>
	<path d="M135.911,52.03h0.527v4.304h-0.527V52.03z"/>
	<path d="M137.244,52.03h0.527v4.304h-0.527V52.03z"/>
	<path d="M143.845,52.645c0.285,0.381,0.428,0.868,0.428,1.462c0,0.643-0.163,1.177-0.489,1.603c-0.383,0.5-0.929,0.75-1.638,0.75
		c-0.662,0-1.183-0.219-1.562-0.656c-0.338-0.422-0.507-0.955-0.507-1.6c0-0.582,0.145-1.08,0.434-1.494
		c0.371-0.531,0.92-0.797,1.646-0.797C142.917,51.913,143.479,52.157,143.845,52.645z M143.331,55.388
		c0.229-0.368,0.344-0.792,0.344-1.271c0-0.506-0.133-0.913-0.396-1.223c-0.266-0.309-0.627-0.463-1.086-0.463
		c-0.445,0-0.809,0.153-1.09,0.459s-0.422,0.757-0.422,1.354c0,0.477,0.12,0.879,0.362,1.206c0.24,0.327,0.632,0.491,1.173,0.491
		C142.729,55.941,143.101,55.756,143.331,55.388z"/>
	<path d="M144.759,54.391h1.471v0.542h-1.471V54.391z"/>
	<path d="M149.83,52.153c0.421,0.225,0.679,0.618,0.773,1.181h-0.577c-0.069-0.314-0.211-0.543-0.428-0.688
		c-0.216-0.143-0.488-0.215-0.817-0.215c-0.391,0-0.719,0.149-0.985,0.448s-0.4,0.744-0.4,1.336c0,0.512,0.11,0.929,0.33,1.249
		c0.22,0.322,0.579,0.482,1.077,0.482c0.381,0,0.696-0.113,0.945-0.338c0.25-0.227,0.378-0.591,0.384-1.095h-1.348v-0.483h1.89
		v2.303h-0.375l-0.141-0.554c-0.194,0.217-0.366,0.367-0.516,0.451c-0.252,0.145-0.572,0.217-0.96,0.217
		c-0.501,0-0.933-0.165-1.294-0.495c-0.394-0.414-0.591-0.982-0.591-1.705c0-0.721,0.192-1.294,0.577-1.72
		c0.366-0.406,0.84-0.609,1.421-0.609C149.194,51.918,149.539,51.997,149.83,52.153z"/>
	<path d="M153.243,54.435c0.121-0.016,0.202-0.066,0.243-0.152c0.023-0.047,0.035-0.115,0.035-0.203
		c0-0.181-0.063-0.312-0.191-0.393s-0.311-0.122-0.548-0.122c-0.275,0-0.471,0.074-0.585,0.224
		c-0.064,0.083-0.106,0.205-0.126,0.368h-0.492c0.01-0.388,0.135-0.657,0.376-0.81c0.241-0.151,0.521-0.228,0.839-0.228
		c0.368,0,0.668,0.07,0.897,0.211c0.229,0.141,0.343,0.359,0.343,0.656v1.808c0,0.055,0.011,0.099,0.033,0.132s0.07,0.05,0.143,0.05
		c0.023,0,0.05-0.002,0.079-0.004c0.029-0.004,0.061-0.008,0.094-0.014v0.39c-0.082,0.023-0.145,0.038-0.188,0.044
		s-0.102,0.009-0.176,0.009c-0.182,0-0.313-0.064-0.396-0.193c-0.043-0.068-0.073-0.165-0.091-0.29
		c-0.107,0.141-0.262,0.263-0.463,0.366s-0.423,0.155-0.665,0.155c-0.291,0-0.529-0.088-0.713-0.265
		c-0.186-0.177-0.277-0.397-0.277-0.663c0-0.29,0.091-0.516,0.272-0.676s0.42-0.259,0.715-0.296L153.243,54.435z M152.133,55.859
		c0.111,0.088,0.243,0.132,0.396,0.132c0.186,0,0.365-0.043,0.539-0.129c0.293-0.143,0.439-0.375,0.439-0.699v-0.424
		c-0.064,0.041-0.147,0.075-0.248,0.103c-0.102,0.028-0.201,0.048-0.299,0.059l-0.318,0.041c-0.191,0.025-0.335,0.065-0.432,0.12
		c-0.163,0.092-0.244,0.238-0.244,0.438C151.966,55.652,152.021,55.772,152.133,55.859z"/>
	<path d="M154.913,52.03h0.527v4.304h-0.527V52.03z"/>
	<path d="M156.302,52.03h0.687l2.146,3.478V52.03h0.557v4.304h-0.655l-2.178-3.473v3.473h-0.557V52.03z"/>
	<path d="M161.891,52.03h0.658l1.562,4.304h-0.639l-0.45-1.289h-1.688l-0.467,1.289h-0.598L161.891,52.03z M162.857,54.57
		l-0.662-1.901l-0.689,1.901H162.857z"/>
	<path d="M166.639,53.363c0.222,0.172,0.355,0.468,0.4,0.888h-0.513c-0.031-0.193-0.103-0.354-0.214-0.481s-0.29-0.192-0.536-0.192
		c-0.336,0-0.576,0.164-0.721,0.491c-0.094,0.213-0.141,0.476-0.141,0.787c0,0.314,0.066,0.579,0.199,0.793
		c0.133,0.215,0.342,0.322,0.627,0.322c0.219,0,0.392-0.066,0.521-0.2c0.127-0.133,0.216-0.315,0.265-0.547h0.513
		c-0.059,0.416-0.205,0.721-0.439,0.913s-0.534,0.288-0.899,0.288c-0.41,0-0.737-0.149-0.981-0.45
		c-0.244-0.299-0.366-0.674-0.366-1.123c0-0.551,0.134-0.979,0.401-1.286s0.608-0.46,1.022-0.46
		C166.13,53.105,166.417,53.191,166.639,53.363z"/>
</g>
<g>
	<path d="M109.957,64.863h0.688l2.146,3.477v-3.477h0.557v4.303h-0.655l-2.178-3.473v3.473h-0.557V64.863z"/>
	<path d="M116.158,66.115c0.207,0.105,0.365,0.24,0.475,0.406c0.104,0.158,0.174,0.342,0.209,0.553
		c0.031,0.145,0.047,0.375,0.047,0.691h-2.282c0.01,0.32,0.085,0.576,0.224,0.77c0.14,0.191,0.355,0.289,0.648,0.289
		c0.273,0,0.491-0.092,0.654-0.273c0.091-0.107,0.155-0.229,0.193-0.369h0.519c-0.014,0.115-0.06,0.244-0.136,0.385
		c-0.078,0.143-0.164,0.258-0.259,0.348c-0.159,0.156-0.355,0.262-0.591,0.316c-0.125,0.031-0.268,0.047-0.427,0.047
		c-0.388,0-0.718-0.143-0.987-0.426c-0.27-0.285-0.404-0.682-0.404-1.193c0-0.504,0.136-0.914,0.408-1.229
		c0.271-0.314,0.627-0.471,1.064-0.471C115.736,65.959,115.95,66.012,116.158,66.115z M116.347,67.348
		c-0.021-0.229-0.071-0.412-0.147-0.549c-0.145-0.254-0.383-0.381-0.719-0.381c-0.24,0-0.441,0.088-0.604,0.262
		c-0.163,0.176-0.249,0.398-0.259,0.668H116.347z"/>
	<path d="M117.662,65.152h0.533v0.877h0.501v0.43h-0.501v2.049c0,0.109,0.037,0.182,0.111,0.219
		c0.041,0.021,0.109,0.033,0.205,0.033c0.025,0,0.053-0.002,0.082-0.002c0.029-0.002,0.063-0.006,0.103-0.01v0.418
		c-0.061,0.018-0.124,0.031-0.188,0.039c-0.066,0.008-0.137,0.012-0.213,0.012c-0.246,0-0.413-0.064-0.501-0.189
		c-0.088-0.127-0.132-0.289-0.132-0.49v-2.078h-0.425v-0.43h0.425V65.152z"/>
	<path d="M122.839,65.479c0.285,0.381,0.428,0.867,0.428,1.461c0,0.643-0.163,1.178-0.489,1.604c-0.383,0.5-0.929,0.75-1.638,0.75
		c-0.662,0-1.183-0.219-1.562-0.656c-0.338-0.422-0.507-0.955-0.507-1.6c0-0.582,0.145-1.08,0.434-1.494
		c0.371-0.531,0.92-0.797,1.646-0.797C121.911,64.746,122.474,64.99,122.839,65.479z M122.324,68.221
		c0.23-0.367,0.345-0.791,0.345-1.271c0-0.506-0.132-0.912-0.397-1.223c-0.264-0.309-0.626-0.463-1.085-0.463
		c-0.445,0-0.809,0.154-1.09,0.459c-0.281,0.307-0.422,0.758-0.422,1.354c0,0.477,0.12,0.879,0.362,1.207
		c0.24,0.326,0.632,0.49,1.173,0.49C121.724,68.773,122.096,68.59,122.324,68.221z"/>
	<path d="M126.826,64.986c0.421,0.225,0.68,0.618,0.773,1.18h-0.577c-0.069-0.314-0.212-0.543-0.428-0.688
		c-0.216-0.143-0.488-0.215-0.817-0.215c-0.391,0-0.719,0.15-0.985,0.449s-0.4,0.744-0.4,1.336c0,0.512,0.11,0.928,0.33,1.248
		c0.22,0.322,0.579,0.482,1.077,0.482c0.381,0,0.695-0.113,0.945-0.338c0.25-0.227,0.378-0.59,0.384-1.094h-1.348v-0.484h1.89v2.303
		h-0.375l-0.141-0.553c-0.194,0.217-0.366,0.367-0.516,0.451c-0.252,0.145-0.572,0.217-0.96,0.217c-0.501,0-0.933-0.166-1.294-0.496
		c-0.395-0.414-0.591-0.982-0.591-1.705c0-0.721,0.192-1.293,0.577-1.719c0.366-0.407,0.84-0.61,1.421-0.61
		C126.19,64.751,126.535,64.83,126.826,64.986z"/>
	<path d="M128.572,64.863h0.527v4.303h-0.527V64.863z"/>
	<path d="M131.852,66.029h0.584c-0.074,0.201-0.24,0.66-0.496,1.377c-0.191,0.539-0.352,0.979-0.48,1.318
		c-0.304,0.801-0.519,1.289-0.644,1.465s-0.339,0.264-0.644,0.264c-0.074,0-0.131-0.004-0.172-0.01
		c-0.039-0.006-0.089-0.016-0.147-0.031v-0.48c0.092,0.025,0.157,0.041,0.198,0.047s0.078,0.008,0.109,0.008
		c0.098,0,0.168-0.016,0.215-0.047c0.045-0.033,0.084-0.072,0.115-0.119c0.01-0.016,0.045-0.096,0.105-0.24s0.104-0.252,0.131-0.322
		l-1.16-3.229h0.598l0.842,2.555L131.852,66.029z"/>
	<path d="M134.963,66.195c0.223,0.172,0.355,0.469,0.4,0.889h-0.513c-0.031-0.193-0.103-0.354-0.214-0.482
		c-0.111-0.127-0.29-0.191-0.536-0.191c-0.336,0-0.576,0.164-0.721,0.49c-0.094,0.213-0.141,0.477-0.141,0.787
		c0,0.314,0.066,0.58,0.199,0.793c0.133,0.215,0.342,0.322,0.627,0.322c0.219,0,0.392-0.066,0.521-0.199
		c0.127-0.133,0.216-0.316,0.265-0.547h0.513c-0.059,0.416-0.205,0.721-0.439,0.912c-0.234,0.193-0.534,0.289-0.899,0.289
		c-0.41,0-0.737-0.15-0.981-0.451c-0.244-0.299-0.366-0.674-0.366-1.123c0-0.551,0.134-0.979,0.401-1.285s0.608-0.461,1.022-0.461
		C134.454,65.938,134.742,66.023,134.963,66.195z"/>
	<path d="M139.163,69.166v-1.025h-1.84v-0.516l1.922-2.666h0.445v2.722h0.618v0.459h-0.618v1.025H139.163z M139.154,67.682v-1.906
		l-1.345,1.906H139.154z"/>
	<path d="M141.021,68.527h0.612v0.639h-0.612V68.527z"/>
	<path d="M144.976,65.643c0.188,0.346,0.281,0.818,0.281,1.42c0,0.57-0.085,1.043-0.255,1.416c-0.246,0.535-0.648,0.803-1.207,0.803
		c-0.504,0-0.879-0.219-1.125-0.656c-0.205-0.365-0.308-0.855-0.308-1.471c0-0.477,0.062-0.887,0.185-1.229
		c0.23-0.637,0.647-0.955,1.251-0.955C144.341,64.971,144.733,65.195,144.976,65.643z M144.445,68.438
		c0.162-0.242,0.243-0.693,0.243-1.354c0-0.477-0.059-0.869-0.176-1.178c-0.118-0.307-0.346-0.461-0.684-0.461
		c-0.312,0-0.539,0.146-0.683,0.438c-0.144,0.293-0.216,0.723-0.216,1.291c0,0.428,0.046,0.771,0.138,1.031
		c0.141,0.396,0.382,0.596,0.722,0.596C144.064,68.801,144.282,68.68,144.445,68.438z"/>
	<path d="M147.521,66.043h0.516v0.416c0.105-0.143,0.222-0.252,0.347-0.33c0.178-0.117,0.388-0.176,0.629-0.176
		c0.356,0,0.658,0.135,0.907,0.408c0.249,0.271,0.373,0.662,0.373,1.168c0,0.684-0.18,1.172-0.538,1.465
		c-0.228,0.186-0.492,0.277-0.794,0.277c-0.237,0-0.437-0.051-0.598-0.154c-0.094-0.059-0.199-0.16-0.314-0.303v1.604h-0.527V66.043
		z M149.506,68.502c0.163-0.205,0.245-0.514,0.245-0.924c0-0.25-0.036-0.465-0.108-0.645c-0.138-0.346-0.389-0.518-0.753-0.518
		c-0.366,0-0.617,0.182-0.753,0.547c-0.072,0.195-0.108,0.443-0.108,0.744c0,0.242,0.036,0.449,0.108,0.619
		c0.138,0.324,0.389,0.486,0.753,0.486C149.137,68.812,149.342,68.709,149.506,68.502z"/>
	<path d="M150.917,66.029h0.501v0.541c0.041-0.105,0.142-0.232,0.302-0.385c0.16-0.15,0.345-0.227,0.554-0.227
		c0.01,0,0.026,0,0.05,0.002s0.063,0.006,0.12,0.012v0.557c-0.031-0.006-0.061-0.01-0.086-0.012
		c-0.027-0.002-0.056-0.002-0.087-0.002c-0.266,0-0.47,0.086-0.612,0.256c-0.143,0.172-0.214,0.367-0.214,0.59v1.805h-0.527V66.029z
		"/>
	<path d="M154.839,66.115c0.207,0.105,0.365,0.24,0.475,0.406c0.104,0.158,0.174,0.342,0.209,0.553
		c0.031,0.145,0.047,0.375,0.047,0.691h-2.282c0.01,0.32,0.084,0.576,0.224,0.77c0.14,0.191,0.355,0.289,0.648,0.289
		c0.273,0,0.491-0.092,0.654-0.273c0.091-0.107,0.155-0.229,0.193-0.369h0.519c-0.014,0.115-0.06,0.244-0.137,0.385
		c-0.077,0.143-0.163,0.258-0.258,0.348c-0.159,0.156-0.355,0.262-0.59,0.316c-0.126,0.031-0.269,0.047-0.428,0.047
		c-0.388,0-0.717-0.143-0.987-0.426c-0.27-0.285-0.404-0.682-0.404-1.193c0-0.504,0.136-0.914,0.407-1.229
		c0.272-0.314,0.627-0.471,1.066-0.471C154.416,65.959,154.631,66.012,154.839,66.115z M155.027,67.348
		c-0.021-0.229-0.07-0.412-0.148-0.549c-0.143-0.254-0.382-0.381-0.717-0.381c-0.24,0-0.442,0.088-0.604,0.262
		c-0.163,0.176-0.249,0.398-0.259,0.668H155.027z"/>
	<path d="M157.961,66.125c0.094,0.059,0.199,0.162,0.318,0.309v-1.585h0.507v4.318h-0.475V68.73
		c-0.123,0.193-0.268,0.332-0.435,0.418c-0.168,0.086-0.359,0.129-0.575,0.129c-0.349,0-0.65-0.146-0.904-0.441
		c-0.256-0.293-0.383-0.684-0.383-1.172c0-0.457,0.116-0.854,0.349-1.189c0.232-0.334,0.564-0.502,0.997-0.502
		C157.6,65.973,157.8,66.023,157.961,66.125z M156.784,68.479c0.142,0.227,0.369,0.34,0.682,0.34c0.243,0,0.443-0.105,0.6-0.316
		c0.156-0.209,0.234-0.51,0.234-0.902c0-0.396-0.081-0.691-0.242-0.881c-0.161-0.191-0.36-0.285-0.598-0.285
		c-0.264,0-0.479,0.102-0.643,0.305s-0.246,0.502-0.246,0.896C156.571,67.971,156.643,68.252,156.784,68.479z"/>
	<path d="M159.574,64.863h0.536v0.598h-0.536V64.863z M159.574,66.043h0.536v3.123h-0.536V66.043z"/>
	<path d="M162.979,66.195c0.222,0.172,0.355,0.469,0.4,0.889h-0.513c-0.031-0.193-0.103-0.354-0.214-0.482
		c-0.111-0.127-0.29-0.191-0.536-0.191c-0.336,0-0.576,0.164-0.721,0.49c-0.094,0.213-0.141,0.477-0.141,0.787
		c0,0.314,0.066,0.58,0.199,0.793c0.133,0.215,0.342,0.322,0.627,0.322c0.219,0,0.392-0.066,0.521-0.199
		c0.127-0.133,0.216-0.316,0.265-0.547h0.513c-0.059,0.416-0.205,0.721-0.439,0.912c-0.234,0.193-0.534,0.289-0.899,0.289
		c-0.41,0-0.737-0.15-0.981-0.451c-0.244-0.299-0.366-0.674-0.366-1.123c0-0.551,0.134-0.979,0.401-1.285s0.608-0.461,1.022-0.461
		C162.471,65.938,162.758,66.023,162.979,66.195z"/>
	<path d="M164.013,65.152h0.533v0.877h0.501v0.43h-0.501v2.049c0,0.109,0.037,0.182,0.111,0.219
		c0.041,0.021,0.109,0.033,0.205,0.033c0.025,0,0.053-0.002,0.082-0.002c0.029-0.002,0.063-0.006,0.103-0.01v0.418
		c-0.061,0.018-0.124,0.031-0.188,0.039c-0.066,0.008-0.137,0.012-0.213,0.012c-0.246,0-0.413-0.064-0.501-0.189
		c-0.088-0.127-0.132-0.289-0.132-0.49v-2.078h-0.425v-0.43h0.425V65.152z"/>
	<path d="M165.574,64.863h0.536v0.598h-0.536V64.863z M165.574,66.043h0.536v3.123h-0.536V66.043z"/>
	<path d="M169.181,66.342c0.277,0.27,0.416,0.666,0.416,1.189c0,0.504-0.122,0.922-0.366,1.252c-0.245,0.33-0.624,0.494-1.138,0.494
		c-0.429,0-0.77-0.145-1.021-0.438c-0.252-0.291-0.378-0.684-0.378-1.176c0-0.525,0.133-0.945,0.398-1.258s0.623-0.469,1.07-0.469
		C168.563,65.938,168.903,66.072,169.181,66.342z M168.854,68.428c0.128-0.266,0.192-0.559,0.192-0.883
		c0-0.293-0.046-0.531-0.139-0.715c-0.147-0.287-0.4-0.432-0.76-0.432c-0.318,0-0.55,0.123-0.695,0.369
		c-0.145,0.244-0.217,0.541-0.217,0.889c0,0.334,0.072,0.611,0.217,0.834c0.146,0.223,0.375,0.334,0.689,0.334
		C168.487,68.824,168.725,68.691,168.854,68.428z"/>
	<path d="M170.244,66.029h0.501v0.445c0.148-0.184,0.306-0.316,0.472-0.396s0.351-0.119,0.554-0.119
		c0.445,0,0.746,0.154,0.902,0.465c0.086,0.17,0.129,0.414,0.129,0.73v2.012h-0.536v-1.977c0-0.191-0.028-0.346-0.085-0.463
		c-0.094-0.195-0.264-0.293-0.51-0.293c-0.125,0-0.228,0.012-0.308,0.037c-0.145,0.043-0.271,0.129-0.381,0.258
		c-0.088,0.104-0.145,0.211-0.172,0.32c-0.025,0.111-0.039,0.27-0.039,0.475v1.643h-0.527V66.029z"/>
	<path d="M173.895,68.182c0.016,0.176,0.061,0.311,0.135,0.404c0.136,0.17,0.37,0.256,0.705,0.256c0.199,0,0.375-0.043,0.526-0.129
		c0.151-0.084,0.228-0.215,0.228-0.393c0-0.135-0.061-0.238-0.182-0.309c-0.077-0.043-0.23-0.092-0.458-0.148l-0.426-0.105
		c-0.272-0.066-0.473-0.141-0.602-0.223c-0.23-0.143-0.346-0.34-0.346-0.592c0-0.297,0.108-0.537,0.325-0.721
		s0.508-0.275,0.874-0.275c0.479,0,0.824,0.139,1.036,0.416c0.133,0.176,0.197,0.365,0.193,0.568h-0.498
		c-0.01-0.119-0.053-0.227-0.129-0.324c-0.124-0.137-0.339-0.207-0.645-0.207c-0.204,0-0.358,0.039-0.464,0.115
		c-0.104,0.074-0.157,0.176-0.157,0.299c0,0.137,0.069,0.246,0.207,0.328c0.079,0.049,0.197,0.092,0.353,0.129l0.354,0.084
		c0.387,0.092,0.645,0.182,0.776,0.268c0.205,0.135,0.308,0.346,0.308,0.635c0,0.279-0.107,0.521-0.322,0.725
		c-0.214,0.203-0.541,0.305-0.979,0.305c-0.473,0-0.808-0.107-1.005-0.318c-0.196-0.211-0.302-0.475-0.315-0.787H173.895z"/>
</g>
<g>
</g>
<g>
</g>
<g>
</g>
<g>
</g>
<g>
</g>
<g>
</g>
</svg>
