<?xml version="1.0" encoding="UTF-8" standalone="no"?>
<svg xmlns="http://www.w3.org/2000/svg" xmlns:xlink="http://www.w3.org/1999/xlink">
	<defs>
		<g id="kidneys">
			<path fill="#FFC05F" stroke="#603813" stroke-width="6" d="M30.634,25.415c2.451,9.498,11.91,3.167,9.498-5.822
				C33.392-5.532,6.102,20.611,5.909,45.363C5.69,73.552,11.236,81.746,23.872,74.165c9.567-5.739,16.66-15.319,17.814-26.044
				c1.607-14.927-9.829-4.164-10.959-1.226"/>
			<path fill="#FFC05F" stroke="#603813" stroke-width="6" d="M70.487,25.415c-2.451,9.498-11.91,3.167-9.498-5.822
				c6.741-25.124,34.03,1.019,34.223,25.771c0.219,28.189-5.327,36.383-17.963,28.802c-9.567-5.739-16.66-15.319-17.814-26.044
				c-1.607-14.927,9.829-4.164,10.959-1.226"/>
			<path fill="none" stroke="#603813" stroke-width="4" d="M37.667,36.333c0,0,7.333-8.554,10.333,6.779
				c2.166,11.069-6.159,51.554-6.159,51.554"/>
			<path fill="none" stroke="#603813" stroke-width="4" d="M63.572,36.333c0,0-7.333-8.554-10.333,6.779
				c-2.166,11.069,6.159,51.554,6.159,51.554"/>
        </g>
        <g id="heart">
			<path fill="#FF99B1" stroke="#C1272D" stroke-width="6" d="M50,23.333C50,23.333,1.333-9,12,37c4.283,18.472,35,55,35,55
	s40.521-15.887,40.667-55.667C87.825-7,50,23.333,50,23.333z"/>
        </g>
        <g id="galnac">
			<rect x="0" y="0" fill="#ff0" width="100" height="100" stroke-width="6" stroke="#990"/>
        </g>
        <g id="mannose">
			<circle cx="50" cy="50" fill="#0f0" r="50" stroke-width="6" stroke="#990"/>
        </g>
	</defs>

	<use xlink:href="#kidneys" x="100" y="100" width="100" height="100"/>
	<use xlink:href="#heart" x="200" y="100" width="100" height="100"/>
	<use xlink:href="#galnac" x="300" y="100" width="100" height="100"/>
	<use xlink:href="#mannose" x="400" y="100" width="100" height="100"/>
</svg>
