<?xml version="1.0" encoding="UTF-8" standalone="no"?>
<svg xmlns="http://www.w3.org/2000/svg" xmlns:xlink="http://www.w3.org/1999/xlink" viewBox="0 0 1600 200">
<!--
RGB settings for SNFG
White  #fff
Blue  #0090bc
Green  #00a651
Yellow  #ffd400
Light blue  #8fcce9
Pink  #f69ea1
Purple  #a54399
Brown  #a17a4d
Orange  #f47920
Red  #ed1c24
-->
  <defs>
    <symbol id="hexnac_base" viewBox="0 0 100 100">
      <rect x="10" y="10" width="80" height="80" />
    </symbol>
    <symbol id="hexnac" viewBox="0 0 100 100">
      <rect x="10" y="10" width="80" height="80" fill="#fff" stroke-width="3" stroke="#000"/>
    </symbol>
    <symbol id="galnac" viewBox="0 0 100 100">
      <rect x="10" y="10" width="80" height="80" fill="#ffd400" stroke-width="1" stroke="#000"/>
    </symbol>
    <symbol id="glcnac" viewBox="0 0 100 100">
      <rect x="10" y="10" width="80" height="80" fill="#0090bc" stroke-width="1" stroke="#000"/>
    </symbol>
    <symbol id="light_galnac" viewBox="0 0 100 100">
      <rect x="10" y="10" width="80" height="80" fill="#ffffB3" stroke-width="10" stroke="#a6a635"/>
    </symbol>
    <symbol id="man" viewBox="0 0 100 100">
      <circle cx="50" cy="50" fill="#00a651" r="40" stroke-width="1" stroke="#000"/>
    </symbol>
    <symbol id="man6p" viewBox="0 0 100 100">
      <circle cx="50" cy="75" fill="#00a651" r="20" stroke-width="1" stroke="#000"/>
      <text x="50" y="25" text-anchor="middle" stroke="#000" stroke-width="2" dy=".35em" dx="0.05em" font-size="25">P</text>
    </symbol>
    <symbol id="glc" viewBox="0 0 100 100">
      <circle cx="50" cy="50" fill="#0090bc" r="40" stroke-width="0" stroke="#000"/>
    </symbol>
    <symbol id="gal" viewBox="0 0 100 100">
      <circle cx="50" cy="50" fill="#ffd400" r="40" stroke-width="1" stroke="#000"/>
    </symbol>
    <symbol id="hex" viewBox="0 0 100 100">
      <circle cx="50" cy="50" fill="#fff" r="40" stroke-width="3" stroke="#000"/>
    </symbol>
    <symbol id="neu" viewBox="0 0 100 100">
      <rect x="17" y="17" transform="rotate(45,50,50)" fill="#ed1c24" stroke="#000" stroke-width="1" width="66" height="66"/>
    </symbol>
    <symbol id="neuac" viewBox="0 0 100 100">
      <rect x="17" y="17" transform="rotate(45,50,50)" fill="#a54399" stroke="#000" stroke-width="1" width="66" height="66"/>
    </symbol>
    <symbol id="neugc" viewBox="0 0 100 100">
      <rect x="17" y="17" transform="rotate(45,50,50)" fill="#8fcce9" stroke="#000" stroke-width="1" width="66" height="66"/>
    </symbol>
    <symbol id="fuc" viewBox="0 0 100 100">
      <path d="M50,15 90,90 10,90 z" fill="#ed1c24" stroke="#000" stroke-width="1"/>
    </symbol>
    <symbol id="fucnac" viewBox="0 0 100 100">
      <path d="M50,15 90,90 50,90 z" fill="#ed1c24" stroke="#000" stroke-width=""/>
      <path d="M50,15 50,90 10,90 z" fill="#fff" stroke="#000" stroke-width="1"/>
    </symbol>
    <symbol id="rha" viewBox="0 0 100 100">
      <path d="M50,15 90,90 10,90 z" fill="#00a651" stroke="#000" stroke-width="1"/>
    </symbol>
    <symbol id="ara" viewBox="0 0 100 100">
<polyline fill="#00a651" stroke="#000" stroke-width="1" stroke-linecap="round" stroke-linejoin="round" stroke-miterlimit="10" points="
  67.802,60.462 78.803,94.32 50.001,69.823 21.196,94.322 32.199,60.462 3.386,39.531 38.999,39.534 50,5.678 61.002,39.536 96.615,39.539 67.804,60.462 "/>
    </symbol>
    <symbol id="araf" viewBox="0 0 100 100">
<polyline fill="#00a651" stroke="#000" stroke-width="1" stroke-linecap="round" stroke-linejoin="round" stroke-miterlimit="10" points="
  67.802,60.462 78.803,94.32 50.001,69.823 21.196,94.322 32.199,60.462 3.386,39.531 38.999,39.534 50,5.678 61.002,39.536 96.615,39.539 67.804,60.462 "/>
      <text x="50" y="50" text-anchor="middle" stroke="#fff" fill="#fff" stroke-width="0" dy=".4em" dx="-0.1em" font-size="50" font-family="sans-serif" font-style="italic">f</text>
    </symbol>
    <symbol id="xyl" viewBox="0 0 100 100">
<polyline fill="#f47920" stroke="#000" stroke-width="1" stroke-linecap="round" stroke-linejoin="round" stroke-miterlimit="10" points="
  67.802,60.462 78.803,94.32 50.001,69.823 21.196,94.322 32.199,60.462 3.386,39.531 38.999,39.534 50,5.678 61.002,39.536 96.615,39.539 67.804,60.462 "/>
    </symbol>
    <symbol id="rib" viewBox="0 0 100 100">
<polyline fill="#f69ea1" stroke="#000" stroke-width="1" stroke-linecap="round" stroke-linejoin="round" stroke-miterlimit="10" points="
  67.802,60.462 78.803,94.32 50.001,69.823 21.196,94.322 32.199,60.462 3.386,39.531 38.999,39.534 50,5.678 61.002,39.536 96.615,39.539 67.804,60.462 "/>
    </symbol>
    <symbol id="hexa" viewBox="0 0 100 100">
      <polyline fill="#fff" stroke="#000" points="50,5 95,50 5,50 50,5"/>
      <polyline fill="#fff" stroke="#000" points="50,95 95,50 5,50 50,95"/>
    </symbol>
    <symbol id="glca" viewBox="0 0 100 100">
      <polyline fill="#0090bc" stroke="#000" points="50,5 95,50 5,50 50,5"/>
      <polyline fill="#fff" stroke="#000" points="50,95 95,50 5,50 50,95"/>
    </symbol>
    <symbol id="idoa" viewBox="0 0 100 100">
      <polyline fill="#fff" stroke="#000" points="50,5 95,50 5,50 50,5"/>
      <polyline fill="#a17a4d" stroke="#000" points="50,95 95,50 5,50 50,95"/>
    </symbol>
    <symbol id="man(a1-2)man" viewBox="0 0 100 100">
      <svg viewBox="0 0 100 100" x="0" y="0" width="100" height="50">
        <circle cx="50" cy="50" fill="#00a651" r="40" stroke-width="1" stroke="#000"/>
      </svg>
      <svg viewBox="0 0 100 100" x="0" y="50" width="100" height="50">
        <circle cx="50" cy="50" fill="#00a651" r="40" stroke-width="1" stroke="#000"/>
      </svg>
    </symbol>
    <symbol id="neuac(a2-3)gal(b1-3)galnac" viewBox="0 0 100 100">
      <svg viewBox="0 0 100 100" x="0" y="0" width="100" height="33">
        <rect x="17" y="17" transform="rotate(45,50,50)" fill="#a54399" stroke="#000" stroke-width="1" width="66" height="66"/>
      </svg>
      <svg viewBox="0 0 100 100" x="0" y="33" width="100" height="33">
        <circle cx="50" cy="50" fill="#ffd400" r="40" stroke-width="1" stroke="#000"/>
      </svg>
      <svg viewBox="0 0 100 100" x="0" y="66" width="100" height="33">
        <rect x="10" y="10" width="80" height="80" fill="#ffd400" stroke-width="1" stroke="#000"/>
      </svg>
    </symbol>
    <symbol id="gal(b1-3)galnac" viewBox="0 0 100 100">
      <svg viewBox="0 0 100 100" x="0" y="0" width="100" height="50">
        <circle cx="50" cy="50" fill="#ffd400" r="40" stroke-width="1" stroke="#000"/>
      </svg>
      <svg viewBox="0 0 100 100" x="0" y="50" width="100" height="50">
        <rect x="10" y="10" width="80" height="80" fill="#ffd400" stroke-width="1" stroke="#000"/>
      </svg>
    </symbol>
    <symbol id="glcnac(b1-4)glcnac" viewBox="0 0 100 100">
      <svg viewBox="0 0 100 100" x="0" y="0" width="100" height="50">
        <rect x="10" y="10" width="80" height="80" fill="#0090bc" stroke-width="1" stroke="#000"/>
      </svg>
      <svg viewBox="0 0 100 100" x="0" y="50" width="100" height="50">
        <rect x="10" y="10" width="80" height="80" fill="#0090bc" stroke-width="1" stroke="#000"/>
      </svg>
    </symbol>
    <symbol id="glcnac(b1-4)glcnac.potential" viewBox="0 0 100 100">
      <svg viewBox="0 0 100 100" x="0" y="0" width="100" height="50">
        <rect x="10" y="10" width="80" height="80" fill="#67a2fc" stroke-width="0" stroke="#000"/>
      </svg>
      <svg viewBox="0 0 100 100" x="0" y="50" width="100" height="50">
        <rect x="10" y="10" width="80" height="80" fill="#67a2fc" stroke-width="0" stroke="#000"/>
      </svg>
    </symbol>
    <symbol id="phospho" viewBox="0 0 100 100">
      <circle cx="50" cy="50" fill="#fff" r="48" stroke-width="3" stroke="#000"/>
      <text x="50" y="50" text-anchor="middle" stroke="#000" stroke-width="2" dy=".35em" dx="0.05em" font-size="50">P</text>
    </symbol>
  </defs>
  <g>
    <rect x="0" y="0" width="100" height="100" stroke-width="0.1" stroke="#000" fill="none"/>
    <text x="20" y="50" font-family="helvetica">100 x 100</text>
    <text x="0" y="15"  font-family="helvetica">0</text>
    <text x="70" y="100"  font-family="helvetica">100</text>
  </g>
  <use xlink:href="#galnac" x="100" y="100" width="100" height="100"/>

  <use xlink:href="#glcnac" x="200" y="100" width="100" height="100"/>
  <use xlink:href="#man" x="300" y="100" width="100" height="100"/>
  <use xlink:href="#glc" x="400" y="100" width="100" height="100"/>
  <use xlink:href="#fuc" x="500" y="100" width="100" height="100"/>
  <use xlink:href="#neu" x="600" y="100" width="100" height="100"/>
  <use xlink:href="#neuac" x="700" y="100" width="100" height="100"/>
  <use xlink:href="#neugc" x="800" y="100" width="100" height="100"/>
  <use xlink:href="#ara" x="900" y="100" width="100" height="100"/>
  <use xlink:href="#xyl" x="1000" y="100" width="100" height="100"/>
  <use xlink:href="#glca" x="1100" y="100" width="100" height="100"/>
  <use xlink:href="#idoa" x="1200" y="100" width="100" height="100"/>
  <use xlink:href="#hexa" x="1300" y="100" width="100" height="100"/>
  <use xlink:href="#fucnac" x="1400" y="100" width="100" height="100"/>
  <use xlink:href="#hexnac" x="1500" y="100" width="100" height="100"/>
  <use xlink:href="#hex" x="1600" y="100" width="100" height="100"/>
  <use xlink:href="#phospho" x="100" y="200" width="100" height="100"/>
  <use xlink:href="#araf" x="600" y="200" width="100" height="100"/>
  <use xlink:href="#rha" x="700" y="200" width="100" height="100"/>
  <use xlink:href="#gal(b1-3)galnac" x="200" y="200" width="100" height="100"/>
  <use xlink:href="#glcnac(b1-4)glcnac" x="300" y="200" width="100" height="100"/>
  <use xlink:href="#man(a1-2)man" x="400" y="200" width="100" height="100"/>
  <use xlink:href="#glcnac(b1-4)glcnac.potential" x="500" y="200" width="100" height="100"/>
  <use xlink:href="#neuac(a2-3)gal(b1-3)galnac" x="800" y="200" width="100" height="100"/>
  <use xlink:href="#hex" x="900" y="200" width="100" height="100"/>
  <use xlink:href="#hex" x="1000" y="200" width="100" height="100"/>
  <use xlink:href="#hex" x="1100" y="200" width="100" height="100"/>
  <use xlink:href="#hex" x="1200" y="200" width="100" height="100"/>
  <use xlink:href="#hex" x="1300" y="200" width="100" height="100"/>
  <use xlink:href="#hex" x="1400" y="200" width="100" height="100"/>
  <use xlink:href="#hex" x="1500" y="200" width="100" height="100"/>

</svg>
