<?xml version="1.0" encoding="UTF-8" standalone="no"?>
<svg xmlns="http://www.w3.org/2000/svg" xmlns:xlink="http://www.w3.org/1999/xlink">
<!--
RGB settings for SNFG
White  #fff
Blue  #0090bc
Green  #00a651
Yellow  #ffd400
Light blue  #8fcce9
Pink  #f69ea1
Purple  #a54399
Brown  #a17a4d
Orange  #f47920
Red  #ed1c24
-->
  <defs>
    <symbol id="galnac" viewBox="0 0 100 100">
      <rect x="4" y="4" fill="#ffd400" width="92" height="92" stroke-width="1" stroke="#000"/>
    </symbol>
    <symbol id="glcnac" viewBox="0 0 100 100">
      <rect x="4" y="4" fill="#0090bc" width="92" height="92" stroke-width="0" stroke="#000"/>
    </symbol>

    <symbol id="light_galnac" viewBox="0 0 100 100">
      <rect x="4" y="4" fill="#ffffB3" width="92" height="92" stroke-width="10" stroke="#a6a635"/>
    </symbol>
    <symbol id="neuac(a2-3)gal(b1-3)galnac" viewBox="0 0 100 100">
      <circle fill="#ffd400" stroke="#000000" stroke-width="2" cx="50" cy="50" r="15"/>
      <rect x="35" y="69.32" fill="#ffd400" stroke="#000000" stroke-width="2" width="31.68" height="32"/>
      <rect x="50" y="0" transform="rotate(45,50,0)" fill="#a54399" stroke="#000000" stroke-width="2" width="22.5" height="22.5"/>
    </symbol>
    <symbol id="gal(b1-3)galnac" viewBox="0 0 100 100">
      <circle cx="50" cy="22" fill="#ffd400" r="20" stroke-width="3" stroke="#000"/>
      <rect x="26" y="50" fill="#ffd400" width="48" height="48" stroke-width="3" stroke="#000"/>
    </symbol>
    <symbol id="glcnac(b1-4)glcnac" viewBox="0 0 100 100">
      <rect x="27" y="0" fill="#0090bc" width="46" height="46" stroke-width="0" stroke="#000"/>
      <rect x="27" y="54" fill="#0090bc" width="46" height="46" stroke-width="0" stroke="#000"/>
    </symbol>
    <symbol id="man" viewBox="0 0 100 100">
      <circle cx="50" cy="50" fill="#00a651" r="48" stroke-width="1" stroke="#000"/>
    </symbol>
    <symbol id="man(a1-2)man" viewBox="0 0 100 100">
      <circle cx="50" cy="23" fill="#00a651" r="23" stroke-width="3" stroke="#000"/>
      <circle cx="50" cy="77" fill="#00a651" r="23" stroke-width="3" stroke="#000"/>
    </symbol>
    <symbol id="glc" viewBox="0 0 100 100">
      <circle cx="50" cy="50" fill="#0090bc" r="50" stroke-width="0" stroke="#000"/>
    </symbol>
    <symbol id="gal" viewBox="0 0 100 100">
      <circle cx="50" cy="50" fill="#ffd400" r="48" stroke-width="1" stroke="#000"/>
    </symbol>
    <symbol id="hex" viewBox="0 0 100 100">
      <circle cx="50" cy="50" fill="#fff" r="48" stroke-width="3" stroke="#000"/>
    </symbol>
    <symbol id="hexnac" viewBox="0 0 100 100">
      <rect x="4" y="4" fill="#fff" width="92" height="92" stroke-width="3" stroke="#000"/>
    </symbol>

    <symbol id="fuc" viewBox="0 0 100 100">
      <path d="M50,5 95,95 5,95 z" fill="#ed1c24" stroke="#000" stroke-width="1"/>
    </symbol>
    <symbol id="xyl" viewBox="0 0 100 100">
<polyline fill="#f47920" stroke="#000" stroke-width="1" stroke-linecap="round" stroke-linejoin="round" stroke-miterlimit="10" points="
  67.802,60.462 78.803,94.32 50.001,69.823 21.196,94.322 32.199,60.462 3.386,39.531 38.999,39.534 50,5.678 61.002,39.536 96.615,39.539 67.804,60.462 "/>
    </symbol>
    <symbol id="glcnac(b1-4)glcnac.potential" viewBox="0 0 100 100">
      <rect x="27" y="0" fill="#67a2fc" width="46" height="46" stroke-width="0" stroke="#000"/>
      <rect x="27" y="54" fill="#67a2fc" width="46" height="46" stroke-width="0" stroke="#000"/>
    </symbol>
    <symbol id="phospho" viewBox="0 0 100 100">
      <circle cx="50" cy="50" fill="#fff" r="48" stroke-width="3" stroke="#000"/>
      <text x="50" y="50" text-anchor="middle" stroke="#000" stroke-width="2px" dy=".35em" dx="0.05em" font-size="50" font-family="sans-serif">P</text>
    </symbol>
  </defs>
  <g>
    <rect x="0" y="0" width="100" height="100" stroke-width="0.1" stroke="#000" fill="none"/>
    <text x="20" y="50" font-family="helvetica">100 x 100</text>
    <text x="0" y="15"  font-family="helvetica">0</text>
    <text x="70" y="100"  font-family="helvetica">100</text>
  </g>
  <use xlink:href="#galnac" x="100" y="100" width="100" height="100"/>

  <use xlink:href="#man" x="200" y="100" width="100" height="100"/>
  <use xlink:href="#gal(b1-3)galnac" x="300" y="100" width="100" height="100"/>
  <use xlink:href="#glcnac(b1-4)glcnac" x="400" y="100" width="100" height="100"/>
  <use xlink:href="#glcnac" x="500" y="100" width="100" height="100"/>
  <use xlink:href="#fuc" x="600" y="100" width="100" height="100"/>
  <use xlink:href="#glc" x="700" y="100" width="100" height="100"/>
  <use xlink:href="#gal" x="800" y="100" width="100" height="100"/>
  <use xlink:href="#hex" x="900" y="100" width="100" height="100"/>
  <use xlink:href="#hexnac" x="1000" y="100" width="100" height="100"/>
  <use xlink:href="#xyl" x="1100" y="100" width="100" height="100"/>
  <use xlink:href="#glcnac(b1-4)glcnac.potential" x="1200" y="100" width="100" height="100"/>
  <use xlink:href="#neuac(a2-3)gal(b1-3)galnac" x="1300" y="100" width="100" height="100"/>
  <use xlink:href="#man(a1-2)man" x="1400" y="100" width="100" height="100"/>
  <use xlink:href="#phospho" x="1500" y="100" width="100" height="100"/>
</svg>
